{"accessors": [{"bufferView": 0, "byteOffset": 0, "componentType": 5123, "count": 6078, "type": "SCALAR"}, {"bufferView": 1, "byteOffset": 0, "componentType": 5126, "count": 3610, "max": [0.0122827077284455, 0.012200066819787, 0.0285192634910345], "min": [-0.01209339126945, -0.01213640160859, -0.00010613202903], "type": "VEC3"}, {"bufferView": 2, "byteOffset": 0, "componentType": 5126, "count": 3610, "type": "VEC3"}, {"bufferView": 3, "byteOffset": 0, "componentType": 5126, "count": 3610, "type": "VEC2"}], "asset": {"generator": "FBX2glTF v0.13.1", "version": "2.0"}, "bufferViews": [{"buffer": 0, "byteLength": 12156, "byteOffset": 0, "target": 34963}, {"buffer": 0, "byteLength": 43320, "byteOffset": 12156, "target": 34962}, {"buffer": 0, "byteLength": 43320, "byteOffset": 55476, "target": 34962}, {"buffer": 0, "byteLength": 28880, "byteOffset": 98796, "target": 34962}], "buffers": [{"byteLength": 127676, "uri": "Barrel_01.bin"}], "images": [{"name": "Polygon_Camping_Texture", "uri": "MainTexture_01.png"}], "materials": [{"alphaMode": "OPAQUE", "doubleSided": false, "extras": {"fromFBX": {"isTruePBR": false, "shadingModel": "Phong"}}, "name": "Material.034", "pbrMetallicRoughness": {"baseColorFactor": [1, 1, 1, 1], "baseColorTexture": {"index": 0, "texCoord": 0}, "metallicFactor": 0.400000005960464, "roughnessFactor": 0.272165536880493}}], "meshes": [{"name": "barrel", "primitives": [{"attributes": {"NORMAL": 2, "POSITION": 1, "TEXCOORD_0": 3}, "indices": 0, "material": 0, "mode": 4}]}], "nodes": [{"mesh": 0, "name": "barrel", "rotation": [-0.70710682868957, 0, 0, 0.707106709480286], "scale": [14.6272497177124, 14.6272497177124, 14.6272497177124], "translation": [0, 1.49011611938477e-08, 0]}], "samplers": [{}], "scene": 0, "scenes": [{"name": "Root Scene", "nodes": [0]}], "textures": [{"name": "base_color_texture", "sampler": 0, "source": 0}]}