{"accessors": [{"bufferView": 0, "byteOffset": 0, "componentType": 5123, "count": 2667, "type": "SCALAR"}, {"bufferView": 1, "byteOffset": 0, "componentType": 5126, "count": 2461, "max": [0.00858273822814226, 0.00843447539955378, 0.00201683514751494], "min": [-0.00112257595174, -0.00837021972984, -0.04510412737727], "type": "VEC3"}, {"bufferView": 2, "byteOffset": 0, "componentType": 5126, "count": 2461, "type": "VEC3"}, {"bufferView": 3, "byteOffset": 0, "componentType": 5126, "count": 2461, "type": "VEC2"}, {"bufferView": 4, "byteOffset": 0, "componentType": 5123, "count": 516, "type": "SCALAR"}, {"bufferView": 5, "byteOffset": 0, "componentType": 5126, "count": 516, "max": [0.00056531582958996, 0.00554698519408703, 0.00567142572253942], "min": [-0.00039678034955, -0.00557997683063, -0.00572932744399], "type": "VEC3"}, {"bufferView": 6, "byteOffset": 0, "componentType": 5126, "count": 516, "type": "VEC3"}, {"bufferView": 7, "byteOffset": 0, "componentType": 5126, "count": 516, "type": "VEC2"}, {"bufferView": 8, "byteOffset": 0, "componentType": 5123, "count": 516, "type": "SCALAR"}, {"bufferView": 9, "byteOffset": 0, "componentType": 5126, "count": 516, "max": [0.00061389949405565, 0.00568593665957451, 0.0055989813990891], "min": [-0.00038273865357, -0.00571496225893, -0.00564714241773], "type": "VEC3"}, {"bufferView": 10, "byteOffset": 0, "componentType": 5126, "count": 516, "type": "VEC3"}, {"bufferView": 11, "byteOffset": 0, "componentType": 5126, "count": 516, "type": "VEC2"}, {"bufferView": 12, "byteOffset": 0, "componentType": 5123, "count": 516, "type": "SCALAR"}, {"bufferView": 13, "byteOffset": 0, "componentType": 5126, "count": 516, "max": [0.00035856352769769, 0.00569233763962984, 0.00554926367476583], "min": [-0.00049760990078, -0.00568871106952, -0.0057071284391], "type": "VEC3"}, {"bufferView": 14, "byteOffset": 0, "componentType": 5126, "count": 516, "type": "VEC3"}, {"bufferView": 15, "byteOffset": 0, "componentType": 5126, "count": 516, "type": "VEC2"}, {"bufferView": 16, "byteOffset": 0, "componentType": 5123, "count": 516, "type": "SCALAR"}, {"bufferView": 17, "byteOffset": 0, "componentType": 5126, "count": 516, "max": [0.00042867846786975, 0.005707120988518, 0.00581109104678035], "min": [-0.00048679020256, -0.00580715108663, -0.00544477812946], "type": "VEC3"}, {"bufferView": 18, "byteOffset": 0, "componentType": 5126, "count": 516, "type": "VEC3"}, {"bufferView": 19, "byteOffset": 0, "componentType": 5126, "count": 516, "type": "VEC2"}], "asset": {"generator": "FBX2glTF v0.13.1", "version": "2.0"}, "bufferViews": [{"buffer": 0, "byteLength": 5334, "byteOffset": 0, "target": 34963}, {"buffer": 0, "byteLength": 29532, "byteOffset": 5336, "target": 34962}, {"buffer": 0, "byteLength": 29532, "byteOffset": 34868, "target": 34962}, {"buffer": 0, "byteLength": 19688, "byteOffset": 64400, "target": 34962}, {"buffer": 0, "byteLength": 1032, "byteOffset": 84088, "target": 34963}, {"buffer": 0, "byteLength": 6192, "byteOffset": 85120, "target": 34962}, {"buffer": 0, "byteLength": 6192, "byteOffset": 91312, "target": 34962}, {"buffer": 0, "byteLength": 4128, "byteOffset": 97504, "target": 34962}, {"buffer": 0, "byteLength": 1032, "byteOffset": 101632, "target": 34963}, {"buffer": 0, "byteLength": 6192, "byteOffset": 102664, "target": 34962}, {"buffer": 0, "byteLength": 6192, "byteOffset": 108856, "target": 34962}, {"buffer": 0, "byteLength": 4128, "byteOffset": 115048, "target": 34962}, {"buffer": 0, "byteLength": 1032, "byteOffset": 119176, "target": 34963}, {"buffer": 0, "byteLength": 6192, "byteOffset": 120208, "target": 34962}, {"buffer": 0, "byteLength": 6192, "byteOffset": 126400, "target": 34962}, {"buffer": 0, "byteLength": 4128, "byteOffset": 132592, "target": 34962}, {"buffer": 0, "byteLength": 1032, "byteOffset": 136720, "target": 34963}, {"buffer": 0, "byteLength": 6192, "byteOffset": 137752, "target": 34962}, {"buffer": 0, "byteLength": 6192, "byteOffset": 143944, "target": 34962}, {"buffer": 0, "byteLength": 4128, "byteOffset": 150136, "target": 34962}], "buffers": [{"byteLength": 154264, "uri": "BigCart.bin"}], "images": [{"name": "Polygon_Camping_Texture", "uri": "MainTexture_01.png"}], "materials": [{"alphaMode": "OPAQUE", "doubleSided": false, "extras": {"fromFBX": {"isTruePBR": false, "shadingModel": "Phong"}}, "name": "Material.044", "pbrMetallicRoughness": {"baseColorFactor": [1, 1, 1, 1], "baseColorTexture": {"index": 0, "texCoord": 0}, "metallicFactor": 0.400000005960464, "roughnessFactor": 0.272165536880493}}, {"alphaMode": "OPAQUE", "doubleSided": false, "extras": {"fromFBX": {"isTruePBR": false, "shadingModel": "Phong"}}, "name": "Material.045", "pbrMetallicRoughness": {"baseColorFactor": [1, 1, 1, 1], "baseColorTexture": {"index": 0, "texCoord": 0}, "metallicFactor": 0.400000005960464, "roughnessFactor": 0.272165536880493}}, {"alphaMode": "OPAQUE", "doubleSided": false, "extras": {"fromFBX": {"isTruePBR": false, "shadingModel": "Phong"}}, "name": "Material.046", "pbrMetallicRoughness": {"baseColorFactor": [1, 1, 1, 1], "baseColorTexture": {"index": 0, "texCoord": 0}, "metallicFactor": 0.400000005960464, "roughnessFactor": 0.272165536880493}}], "meshes": [{"name": "big cart", "primitives": [{"attributes": {"NORMAL": 2, "POSITION": 1, "TEXCOORD_0": 3}, "indices": 0, "material": 0, "mode": 4}]}, {"name": "big cart.002", "primitives": [{"attributes": {"NORMAL": 6, "POSITION": 5, "TEXCOORD_0": 7}, "indices": 4, "material": 0, "mode": 4}]}, {"name": "big cart.003", "primitives": [{"attributes": {"NORMAL": 10, "POSITION": 9, "TEXCOORD_0": 11}, "indices": 8, "material": 0, "mode": 4}]}, {"name": "big cart.001", "primitives": [{"attributes": {"NORMAL": 14, "POSITION": 13, "TEXCOORD_0": 15}, "indices": 12, "material": 1, "mode": 4}]}, {"name": "big cart.004", "primitives": [{"attributes": {"NORMAL": 18, "POSITION": 17, "TEXCOORD_0": 19}, "indices": 16, "material": 2, "mode": 4}]}], "nodes": [{"children": [1, 2, 3, 4], "mesh": 0, "name": "big cart", "rotation": [-6.883939e-08, -6.883938e-08, 0.707106709480286, 0.707106828689575], "scale": [49.9294891357422, 49.9294891357422, 49.9294891357422], "translation": [0.00162569398526102, 0.296869337558746, 1.32112228870392]}, {"mesh": 1, "name": "big cart.002", "rotation": [-0.5, 0.5, -0.49999988079071, 0.50000011920929], "scale": [0.999999821186066, 0.999999821186066, 0.999999821186066], "translation": [-0.00023603686714, -0.00866251904517, -0.02034948021173]}, {"mesh": 2, "name": "big cart.003", "rotation": [-0.5, 0.5, -0.49999988079071, 0.50000011920929], "scale": [0.999999821186066, 0.999999821186066, 0.999999821186066], "translation": [-0.00024835238582, -0.00866249576211, -0.04018794745207]}, {"mesh": 3, "name": "big cart.001", "rotation": [0.0088263712823391, -0.01066679600626, -0.70811527967453, 0.705961108207703], "scale": [0.999999701976776, 0.999999701976776, 0.999999761581421], "translation": [-0.00022944856028, 0.00868190545588732, -0.04016515612602]}, {"mesh": 4, "name": "big cart.004", "rotation": [0.0860232040286064, -0.08602304756641, -0.7018546462059, 0.701854765415192], "scale": [0.999999821186066, 0.999999761581421, 0.999999761581421], "translation": [-0.00037629413418, 0.00868190173059702, -0.02032272145152]}], "samplers": [{}], "scene": 0, "scenes": [{"name": "Root Scene", "nodes": [0]}], "textures": [{"name": "base_color_texture", "sampler": 0, "source": 0}]}