{"accessors": [{"bufferView": 0, "byteOffset": 0, "componentType": 5123, "count": 5052, "type": "SCALAR"}, {"bufferView": 1, "byteOffset": 0, "componentType": 5126, "count": 3310, "max": [0.136499986052513, 0.122384078800678, 0.670811474323273], "min": [-0.16181716322899, -0.18167532980442, -0.02895631454885], "type": "VEC3"}, {"bufferView": 2, "byteOffset": 0, "componentType": 5126, "count": 3310, "type": "VEC3"}, {"bufferView": 3, "byteOffset": 0, "componentType": 5126, "count": 3310, "type": "VEC2"}], "asset": {"generator": "FBX2glTF v0.13.1", "version": "2.0"}, "bufferViews": [{"buffer": 0, "byteLength": 10104, "byteOffset": 0, "target": 34963}, {"buffer": 0, "byteLength": 39720, "byteOffset": 10104, "target": 34962}, {"buffer": 0, "byteLength": 39720, "byteOffset": 49824, "target": 34962}, {"buffer": 0, "byteLength": 26480, "byteOffset": 89544, "target": 34962}], "buffers": [{"byteLength": 116024, "uri": "Bonfire_01.bin"}], "images": [{"name": "Polygon_Camping_Texture", "uri": "MainTexture_01.png"}], "materials": [{"alphaMode": "OPAQUE", "doubleSided": false, "extras": {"fromFBX": {"isTruePBR": false, "shadingModel": "Phong"}}, "name": "Material.027", "pbrMetallicRoughness": {"baseColorFactor": [1, 1, 1, 1], "baseColorTexture": {"index": 0, "texCoord": 0}, "metallicFactor": 0.400000005960464, "roughnessFactor": 0.272165536880493}}], "meshes": [{"name": "bonfire", "primitives": [{"attributes": {"NORMAL": 2, "POSITION": 1, "TEXCOORD_0": 3}, "indices": 0, "material": 0, "mode": 4}]}], "nodes": [{"mesh": 0, "name": "bonfire", "rotation": [-0.75025171041489, 0.0589678399264812, -0.07554542273283, 0.654169738292694], "scale": [1.39070355892181, 1.39070343971252, 1.39070391654968], "translation": [5.82076609134674e-11, 4.65661287307739e-10, -5.821e-11]}], "samplers": [{}], "scene": 0, "scenes": [{"name": "Root Scene", "nodes": [0]}], "textures": [{"name": "base_color_texture", "sampler": 0, "source": 0}]}