{"accessors": [{"bufferView": 0, "byteOffset": 0, "componentType": 5123, "count": 1050, "type": "SCALAR"}, {"bufferView": 1, "byteOffset": 0, "componentType": 5126, "count": 626, "max": [0.00638301344588399, 0.00106042646802962, 0.0115662990137935], "min": [-0.006467721425, -0.00083976530004, -9.17196212e-06], "type": "VEC3"}, {"bufferView": 2, "byteOffset": 0, "componentType": 5126, "count": 626, "type": "VEC3"}, {"bufferView": 3, "byteOffset": 0, "componentType": 5126, "count": 626, "type": "VEC2"}], "asset": {"generator": "FBX2glTF v0.13.1", "version": "2.0"}, "bufferViews": [{"buffer": 0, "byteLength": 2100, "byteOffset": 0, "target": 34963}, {"buffer": 0, "byteLength": 7512, "byteOffset": 2100, "target": 34962}, {"buffer": 0, "byteLength": 7512, "byteOffset": 9612, "target": 34962}, {"buffer": 0, "byteLength": 5008, "byteOffset": 17124, "target": 34962}], "buffers": [{"byteLength": 22132, "uri": "Bonfire_02.bin"}], "images": [{"name": "Polygon_Camping_Texture", "uri": "MainTexture_01.png"}], "materials": [{"alphaMode": "OPAQUE", "doubleSided": false, "extras": {"fromFBX": {"isTruePBR": false, "shadingModel": "Phong"}}, "name": "Material.026", "pbrMetallicRoughness": {"baseColorFactor": [1, 1, 1, 1], "baseColorTexture": {"index": 0, "texCoord": 0}, "metallicFactor": 0.400000005960464, "roughnessFactor": 0.272165536880493}}], "meshes": [{"name": "horizontal bonfire", "primitives": [{"attributes": {"NORMAL": 2, "POSITION": 1, "TEXCOORD_0": 3}, "indices": 0, "material": 0, "mode": 4}]}], "nodes": [{"mesh": 0, "name": "horizontal bonfire", "rotation": [1.37678767941907e-07, 0.707106828689575, 0.70710676908493, -1.3767878e-07], "scale": [100, 100, 100], "translation": [0, 0, 0]}], "samplers": [{}], "scene": 0, "scenes": [{"name": "Root Scene", "nodes": [0]}], "textures": [{"name": "base_color_texture", "sampler": 0, "source": 0}]}