{"accessors": [{"bufferView": 0, "byteOffset": 0, "componentType": 5123, "count": 1380, "type": "SCALAR"}, {"bufferView": 1, "byteOffset": 0, "componentType": 5126, "count": 894, "max": [0.0185276512056589, 0.0185276512056589, 0.0303039159625769], "min": [-0.01852765120566, -0.01852765120566, -0.0002412488102], "type": "VEC3"}, {"bufferView": 2, "byteOffset": 0, "componentType": 5126, "count": 894, "type": "VEC3"}, {"bufferView": 3, "byteOffset": 0, "componentType": 5126, "count": 894, "type": "VEC2"}], "asset": {"generator": "FBX2glTF v0.13.1", "version": "2.0"}, "bufferViews": [{"buffer": 0, "byteLength": 2760, "byteOffset": 0, "target": 34963}, {"buffer": 0, "byteLength": 10728, "byteOffset": 2760, "target": 34962}, {"buffer": 0, "byteLength": 10728, "byteOffset": 13488, "target": 34962}, {"buffer": 0, "byteLength": 7152, "byteOffset": 24216, "target": 34962}], "buffers": [{"byteLength": 31368, "uri": "Bottle_03.bin"}], "images": [{"name": "Polygon_Camping_Texture", "uri": "MainTexture_01.png"}], "materials": [{"alphaMode": "OPAQUE", "doubleSided": false, "extras": {"fromFBX": {"isTruePBR": false, "shadingModel": "Phong"}}, "name": "Material.041", "pbrMetallicRoughness": {"baseColorFactor": [1, 1, 1, 1], "baseColorTexture": {"index": 0, "texCoord": 0}, "metallicFactor": 0.400000005960464, "roughnessFactor": 0.272165536880493}}], "meshes": [{"name": "jug", "primitives": [{"attributes": {"NORMAL": 2, "POSITION": 1, "TEXCOORD_0": 3}, "indices": 0, "material": 0, "mode": 4}]}], "nodes": [{"mesh": 0, "name": "jug", "rotation": [-0.70710682868957, 0, 0, 0.707106709480286], "scale": [7.97999477386475, 7.97999477386475, 7.97999477386475], "translation": [0, 0.0022541880607605, 0]}], "samplers": [{}], "scene": 0, "scenes": [{"name": "Root Scene", "nodes": [0]}], "textures": [{"name": "base_color_texture", "sampler": 0, "source": 0}]}