{"accessors": [{"bufferView": 0, "byteOffset": 0, "componentType": 5123, "count": 1572, "type": "SCALAR"}, {"bufferView": 1, "byteOffset": 0, "componentType": 5126, "count": 1018, "max": [0.0118784243240952, 0.0117943473160267, 0.070217490196228], "min": [-0.01283237431198, -0.01242491789162, -0.0002412488102], "type": "VEC3"}, {"bufferView": 2, "byteOffset": 0, "componentType": 5126, "count": 1018, "type": "VEC3"}, {"bufferView": 3, "byteOffset": 0, "componentType": 5126, "count": 1018, "type": "VEC2"}], "asset": {"generator": "FBX2glTF v0.13.1", "version": "2.0"}, "bufferViews": [{"buffer": 0, "byteLength": 3144, "byteOffset": 0, "target": 34963}, {"buffer": 0, "byteLength": 12216, "byteOffset": 3144, "target": 34962}, {"buffer": 0, "byteLength": 12216, "byteOffset": 15360, "target": 34962}, {"buffer": 0, "byteLength": 8144, "byteOffset": 27576, "target": 34962}], "buffers": [{"byteLength": 35720, "uri": "Bottle_01.bin"}], "images": [{"name": "Polygon_Camping_Texture", "uri": "MainTexture_01.png"}], "materials": [{"alphaMode": "OPAQUE", "doubleSided": false, "extras": {"fromFBX": {"isTruePBR": false, "shadingModel": "Phong"}}, "name": "Material.039", "pbrMetallicRoughness": {"baseColorFactor": [1, 1, 1, 1], "baseColorTexture": {"index": 0, "texCoord": 0}, "metallicFactor": 0.400000005960464, "roughnessFactor": 0.272165536880493}}], "meshes": [{"name": "bottle", "primitives": [{"attributes": {"NORMAL": 2, "POSITION": 1, "TEXCOORD_0": 3}, "indices": 0, "material": 0, "mode": 4}]}], "nodes": [{"mesh": 0, "name": "bottle", "rotation": [-0.70710682868957, 0, 0, 0.707106709480286], "scale": [7.97999477386475, 7.97999477386475, 7.97999477386475], "translation": [0, 0.0027429610490799, 0]}], "samplers": [{}], "scene": 0, "scenes": [{"name": "Root Scene", "nodes": [0]}], "textures": [{"name": "base_color_texture", "sampler": 0, "source": 0}]}