{"accessors": [{"bufferView": 0, "byteOffset": 0, "componentType": 5123, "count": 1020, "type": "SCALAR"}, {"bufferView": 1, "byteOffset": 0, "componentType": 5126, "count": 674, "max": [0.00187317759264261, 0.00184883212205023, 0.00199271342717111], "min": [-0.0018386101583, -0.00184725772124, 2.78699390037218e-05], "type": "VEC3"}, {"bufferView": 2, "byteOffset": 0, "componentType": 5126, "count": 674, "type": "VEC3"}, {"bufferView": 3, "byteOffset": 0, "componentType": 5126, "count": 674, "type": "VEC2"}], "asset": {"generator": "FBX2glTF v0.13.1", "version": "2.0"}, "bufferViews": [{"buffer": 0, "byteLength": 2040, "byteOffset": 0, "target": 34963}, {"buffer": 0, "byteLength": 8088, "byteOffset": 2040, "target": 34962}, {"buffer": 0, "byteLength": 8088, "byteOffset": 10128, "target": 34962}, {"buffer": 0, "byteLength": 5392, "byteOffset": 18216, "target": 34962}], "buffers": [{"byteLength": 23608, "uri": "Box_01.bin"}], "images": [{"name": "Polygon_Camping_Texture", "uri": "MainTexture_01.png"}], "materials": [{"alphaMode": "OPAQUE", "doubleSided": false, "extras": {"fromFBX": {"isTruePBR": false, "shadingModel": "Phong"}}, "name": "Material.031", "pbrMetallicRoughness": {"baseColorFactor": [1, 1, 1, 1], "baseColorTexture": {"index": 0, "texCoord": 0}, "metallicFactor": 0.400000005960464, "roughnessFactor": 0.272165536880493}}], "meshes": [{"name": "smal box", "primitives": [{"attributes": {"NORMAL": 2, "POSITION": 1, "TEXCOORD_0": 3}, "indices": 0, "material": 0, "mode": 4}]}], "nodes": [{"mesh": 0, "name": "smal box", "rotation": [-0.70712697505951, 5.02565890201367e-05, -0.00044768600492, 0.707086443901062], "scale": [100, 100, 100], "translation": [0, -1.490116e-08, -4.5e-13]}], "samplers": [{}], "scene": 0, "scenes": [{"name": "Root Scene", "nodes": [0]}], "textures": [{"name": "base_color_texture", "sampler": 0, "source": 0}]}