{"accessors": [{"bufferView": 0, "byteOffset": 0, "componentType": 5123, "count": 900, "type": "SCALAR"}, {"bufferView": 1, "byteOffset": 0, "componentType": 5126, "count": 569, "max": [0.0103484159335494, 0.010395348072052, 0.0205821637064219], "min": [-0.01034660078585, -0.01030921563506, -0.00034927009256], "type": "VEC3"}, {"bufferView": 2, "byteOffset": 0, "componentType": 5126, "count": 569, "type": "VEC3"}, {"bufferView": 3, "byteOffset": 0, "componentType": 5126, "count": 569, "type": "VEC2"}], "asset": {"generator": "FBX2glTF v0.13.1", "version": "2.0"}, "bufferViews": [{"buffer": 0, "byteLength": 1800, "byteOffset": 0, "target": 34963}, {"buffer": 0, "byteLength": 6828, "byteOffset": 1800, "target": 34962}, {"buffer": 0, "byteLength": 6828, "byteOffset": 8628, "target": 34962}, {"buffer": 0, "byteLength": 4552, "byteOffset": 15456, "target": 34962}], "buffers": [{"byteLength": 20008, "uri": "Box_02.bin"}], "images": [{"name": "Polygon_Camping_Texture", "uri": "MainTexture_01.png"}], "materials": [{"alphaMode": "OPAQUE", "doubleSided": false, "extras": {"fromFBX": {"isTruePBR": false, "shadingModel": "Phong"}}, "name": "Material.032", "pbrMetallicRoughness": {"baseColorFactor": [1, 1, 1, 1], "baseColorTexture": {"index": 0, "texCoord": 0}, "metallicFactor": 0.400000005960464, "roughnessFactor": 0.272165536880493}}], "meshes": [{"name": "close box", "primitives": [{"attributes": {"NORMAL": 2, "POSITION": 1, "TEXCOORD_0": 3}, "indices": 0, "material": 0, "mode": 4}]}], "nodes": [{"mesh": 0, "name": "close box", "rotation": [-0.70709973573685, 0.00316361640579998, 0.00316361663863063, 0.707099676132202], "scale": [17.7644386291504, 17.7644386291504, 17.764440536499], "translation": [0, 0, 0]}], "samplers": [{}], "scene": 0, "scenes": [{"name": "Root Scene", "nodes": [0]}], "textures": [{"name": "base_color_texture", "sampler": 0, "source": 0}]}