{"accessors": [{"bufferView": 0, "byteOffset": 0, "componentType": 5123, "count": 600, "type": "SCALAR"}, {"bufferView": 1, "byteOffset": 0, "componentType": 5126, "count": 335, "max": [0.00523577909916639, 0.00523582147434354, 0.00046045082854107], "min": [-0.00523587083444, -0.00523582845926, 1.52489401443745e-05], "type": "VEC3"}, {"bufferView": 2, "byteOffset": 0, "componentType": 5126, "count": 335, "type": "VEC3"}, {"bufferView": 3, "byteOffset": 0, "componentType": 5126, "count": 335, "type": "VEC2"}], "asset": {"generator": "FBX2glTF v0.13.1", "version": "2.0"}, "bufferViews": [{"buffer": 0, "byteLength": 1200, "byteOffset": 0, "target": 34963}, {"buffer": 0, "byteLength": 4020, "byteOffset": 1200, "target": 34962}, {"buffer": 0, "byteLength": 4020, "byteOffset": 5220, "target": 34962}, {"buffer": 0, "byteLength": 2680, "byteOffset": 9240, "target": 34962}], "buffers": [{"byteLength": 11920, "uri": "Box_cap.bin"}], "images": [{"name": "Polygon_Camping_Texture", "uri": "MainTexture_01.png"}], "materials": [{"alphaMode": "OPAQUE", "doubleSided": false, "extras": {"fromFBX": {"isTruePBR": false, "shadingModel": "Phong"}}, "name": "Material.030", "pbrMetallicRoughness": {"baseColorFactor": [1, 1, 1, 1], "baseColorTexture": {"index": 0, "texCoord": 0}, "metallicFactor": 0.400000005960464, "roughnessFactor": 0.272165536880493}}], "meshes": [{"name": "drawer box", "primitives": [{"attributes": {"NORMAL": 2, "POSITION": 1, "TEXCOORD_0": 3}, "indices": 0, "material": 0, "mode": 4}]}], "nodes": [{"mesh": 0, "name": "drawer box", "rotation": [-0.70712697505951, 5.02565890201367e-05, -0.00044768603402, 0.707086443901062], "scale": [33.426700592041, 33.4267044067383, 33.426700592041], "translation": [1.13686837721616e-13, 0, 1.4210854715202e-14]}], "samplers": [{}], "scene": 0, "scenes": [{"name": "Root Scene", "nodes": [0]}], "textures": [{"name": "base_color_texture", "sampler": 0, "source": 0}]}