{"accessors": [{"bufferView": 0, "byteOffset": 0, "componentType": 5123, "count": 1140, "type": "SCALAR"}, {"bufferView": 1, "byteOffset": 0, "componentType": 5126, "count": 688, "max": [0.010484742000699, 0.0103873796761036, 0.019881721585989], "min": [-0.01037520729005, -0.01039395108819, -0.0001182764754], "type": "VEC3"}, {"bufferView": 2, "byteOffset": 0, "componentType": 5126, "count": 688, "type": "VEC3"}, {"bufferView": 3, "byteOffset": 0, "componentType": 5126, "count": 688, "type": "VEC2"}], "asset": {"generator": "FBX2glTF v0.13.1", "version": "2.0"}, "bufferViews": [{"buffer": 0, "byteLength": 2280, "byteOffset": 0, "target": 34963}, {"buffer": 0, "byteLength": 8256, "byteOffset": 2280, "target": 34962}, {"buffer": 0, "byteLength": 8256, "byteOffset": 10536, "target": 34962}, {"buffer": 0, "byteLength": 5504, "byteOffset": 18792, "target": 34962}], "buffers": [{"byteLength": 24296, "uri": "Box_03.bin"}], "images": [{"name": "Polygon_Camping_Texture", "uri": "MainTexture_01.png"}], "materials": [{"alphaMode": "OPAQUE", "doubleSided": false, "extras": {"fromFBX": {"isTruePBR": false, "shadingModel": "Phong"}}, "name": "Material.033", "pbrMetallicRoughness": {"baseColorFactor": [1, 1, 1, 1], "baseColorTexture": {"index": 0, "texCoord": 0}, "metallicFactor": 0.400000005960464, "roughnessFactor": 0.272165536880493}}], "meshes": [{"name": "box", "primitives": [{"attributes": {"NORMAL": 2, "POSITION": 1, "TEXCOORD_0": 3}, "indices": 0, "material": 0, "mode": 4}]}], "nodes": [{"mesh": 0, "name": "box", "rotation": [-0.70710682868957, 0, 0, 0.707106709480286], "scale": [17.8835430145264, 17.8835430145264, 17.8835430145264], "translation": [0, 0, 0]}], "samplers": [{}], "scene": 0, "scenes": [{"name": "Root Scene", "nodes": [0]}], "textures": [{"name": "base_color_texture", "sampler": 0, "source": 0}]}