{"accessors": [{"bufferView": 0, "byteOffset": 0, "componentType": 5123, "count": 3378, "type": "SCALAR"}, {"bufferView": 1, "byteOffset": 0, "componentType": 5126, "count": 1768, "max": [0.0107955140992999, 0.0115689262747765, -0.00016773461539], "min": [-0.01006385684013, -0.01016534306109, -0.01620107330382], "type": "VEC3"}, {"bufferView": 2, "byteOffset": 0, "componentType": 5126, "count": 1768, "type": "VEC3"}, {"bufferView": 3, "byteOffset": 0, "componentType": 5126, "count": 1768, "type": "VEC2"}], "asset": {"generator": "FBX2glTF v0.13.1", "version": "2.0"}, "bufferViews": [{"buffer": 0, "byteLength": 6756, "byteOffset": 0, "target": 34963}, {"buffer": 0, "byteLength": 21216, "byteOffset": 6756, "target": 34962}, {"buffer": 0, "byteLength": 21216, "byteOffset": 27972, "target": 34962}, {"buffer": 0, "byteLength": 14144, "byteOffset": 49188, "target": 34962}], "buffers": [{"byteLength": 63332, "uri": "Broken_Barrel_01.bin"}], "images": [{"name": "Polygon_Camping_Texture", "uri": "MainTexture_01.png"}], "materials": [{"alphaMode": "OPAQUE", "doubleSided": false, "extras": {"fromFBX": {"isTruePBR": false, "shadingModel": "Phong"}}, "name": "Material.036", "pbrMetallicRoughness": {"baseColorFactor": [1, 1, 1, 1], "baseColorTexture": {"index": 0, "texCoord": 0}, "metallicFactor": 0.400000005960464, "roughnessFactor": 0.272165536880493}}], "meshes": [{"name": "broken barrel", "primitives": [{"attributes": {"NORMAL": 2, "POSITION": 1, "TEXCOORD_0": 3}, "indices": 0, "material": 0, "mode": 4}]}], "nodes": [{"mesh": 0, "name": "broken barrel", "rotation": [0.00194037077017128, 0.707104206085205, -0.70710402727127, -0.00194027577527], "scale": [18.821907043457, 18.8219051361084, 18.821907043457], "translation": [0, 0, 0]}], "samplers": [{}], "scene": 0, "scenes": [{"name": "Root Scene", "nodes": [0]}], "textures": [{"name": "base_color_texture", "sampler": 0, "source": 0}]}