{"accessors": [{"bufferView": 0, "byteOffset": 0, "componentType": 5123, "count": 1872, "type": "SCALAR"}, {"bufferView": 1, "byteOffset": 0, "componentType": 5126, "count": 1164, "max": [0.0753413289785385, 0.0789117887616158, 0.161140471696854], "min": [-0.06585388630629, -0.24436831474304, 0.00080369069473817], "type": "VEC3"}, {"bufferView": 2, "byteOffset": 0, "componentType": 5126, "count": 1164, "type": "VEC3"}, {"bufferView": 3, "byteOffset": 0, "componentType": 5126, "count": 1164, "type": "VEC2"}, {"bufferView": 4, "byteOffset": 0, "componentType": 5123, "count": 1776, "type": "SCALAR"}, {"bufferView": 5, "byteOffset": 0, "componentType": 5126, "count": 802, "max": [0.00607616314664483, 0.0737156197428703, 0.0737903416156769], "min": [-0.00865998771042, -0.07366687804461, -0.07403988391161], "type": "VEC3"}, {"bufferView": 6, "byteOffset": 0, "componentType": 5126, "count": 802, "type": "VEC3"}, {"bufferView": 7, "byteOffset": 0, "componentType": 5126, "count": 802, "type": "VEC2"}, {"bufferView": 8, "byteOffset": 0, "componentType": 5123, "count": 1770, "type": "SCALAR"}, {"bufferView": 9, "byteOffset": 0, "componentType": 5126, "count": 811, "max": [0.00758728617802262, 0.0736498981714249, 0.0738118663430214], "min": [-0.00574901746586, -0.07380232959986, -0.07377742230892], "type": "VEC3"}, {"bufferView": 10, "byteOffset": 0, "componentType": 5126, "count": 811, "type": "VEC3"}, {"bufferView": 11, "byteOffset": 0, "componentType": 5126, "count": 811, "type": "VEC2"}], "asset": {"generator": "FBX2glTF v0.13.1", "version": "2.0"}, "bufferViews": [{"buffer": 0, "byteLength": 3744, "byteOffset": 0, "target": 34963}, {"buffer": 0, "byteLength": 13968, "byteOffset": 3744, "target": 34962}, {"buffer": 0, "byteLength": 13968, "byteOffset": 17712, "target": 34962}, {"buffer": 0, "byteLength": 9312, "byteOffset": 31680, "target": 34962}, {"buffer": 0, "byteLength": 3552, "byteOffset": 40992, "target": 34963}, {"buffer": 0, "byteLength": 9624, "byteOffset": 44544, "target": 34962}, {"buffer": 0, "byteLength": 9624, "byteOffset": 54168, "target": 34962}, {"buffer": 0, "byteLength": 6416, "byteOffset": 63792, "target": 34962}, {"buffer": 0, "byteLength": 3540, "byteOffset": 70208, "target": 34963}, {"buffer": 0, "byteLength": 9732, "byteOffset": 73748, "target": 34962}, {"buffer": 0, "byteLength": 9732, "byteOffset": 83480, "target": 34962}, {"buffer": 0, "byteLength": 6488, "byteOffset": 93212, "target": 34962}], "buffers": [{"byteLength": 99700, "uri": "Cart.bin"}], "images": [{"name": "Polygon_Camping_Texture", "uri": "MainTexture_01.png"}], "materials": [{"alphaMode": "OPAQUE", "doubleSided": false, "extras": {"fromFBX": {"isTruePBR": false, "shadingModel": "Phong"}}, "name": "Material.038", "pbrMetallicRoughness": {"baseColorFactor": [1, 1, 1, 1], "baseColorTexture": {"index": 0, "texCoord": 0}, "metallicFactor": 0.400000005960464, "roughnessFactor": 0.272165536880493}}], "meshes": [{"name": "\u043a\u043e\u043b\u0435\u0441\u0430", "primitives": [{"attributes": {"NORMAL": 2, "POSITION": 1, "TEXCOORD_0": 3}, "indices": 0, "material": 0, "mode": 4}]}, {"name": "\u043a\u043e\u043b\u0435\u0441\u0430.001", "primitives": [{"attributes": {"NORMAL": 6, "POSITION": 5, "TEXCOORD_0": 7}, "indices": 4, "material": 0, "mode": 4}]}, {"name": "\u043a\u043e\u043b\u0435\u0441\u0430.002", "primitives": [{"attributes": {"NORMAL": 10, "POSITION": 9, "TEXCOORD_0": 11}, "indices": 8, "material": 0, "mode": 4}]}], "nodes": [{"children": [1, 2], "mesh": 0, "name": "\u043a\u043e\u043b\u0435\u0441\u0430", "rotation": [-0.70710682868957, 0, 0, 0.707106709480286], "scale": [3.81195664405823, 3.81195664405823, 3.81195592880249], "translation": [0, 0, 7.45058592599435e-09]}, {"mesh": 1, "name": "\u043a\u043e\u043b\u0435\u0441\u0430.001", "rotation": [-0.26314461231232, 0, 5.26875499609267e-15, 0.964756369590759], "scale": [0.999999940395355, 1, 0.999999582767487], "translation": [0.0732026100158691, 0.00138817098923028, 0.0715690925717354]}, {"mesh": 2, "name": "\u043a\u043e\u043b\u0435\u0441\u0430.002", "rotation": [-0.30349320173264, 0, 5.24943502159874e-15, 0.952833592891693], "scale": [0.999999940395355, 1, 0.999999701976776], "translation": [-0.07296075671911, 0.00117514817975461, 0.0720509365200996]}], "samplers": [{}], "scene": 0, "scenes": [{"name": "Root Scene", "nodes": [0]}], "textures": [{"name": "base_color_texture", "sampler": 0, "source": 0}]}