{"accessors": [{"bufferView": 0, "byteOffset": 0, "componentType": 5123, "count": 1923, "type": "SCALAR"}, {"bufferView": 1, "byteOffset": 0, "componentType": 5126, "count": 1060, "max": [0.0203202217817307, 0.0266168061643839, 0.0113493129611015], "min": [-0.02032346837223, 1.14560123165575e-06, -0.01110402680933], "type": "VEC3"}, {"bufferView": 2, "byteOffset": 0, "componentType": 5126, "count": 1060, "type": "VEC3"}, {"bufferView": 3, "byteOffset": 0, "componentType": 5126, "count": 1060, "type": "VEC2"}], "asset": {"generator": "FBX2glTF v0.13.1", "version": "2.0"}, "bufferViews": [{"buffer": 0, "byteLength": 3846, "byteOffset": 0, "target": 34963}, {"buffer": 0, "byteLength": 12720, "byteOffset": 3848, "target": 34962}, {"buffer": 0, "byteLength": 12720, "byteOffset": 16568, "target": 34962}, {"buffer": 0, "byteLength": 8480, "byteOffset": 29288, "target": 34962}], "buffers": [{"byteLength": 37768, "uri": "Chest_02.bin"}], "images": [{"name": "Polygon_Camping_Texture", "uri": "MainTexture_01.png"}], "materials": [{"alphaMode": "OPAQUE", "doubleSided": false, "extras": {"fromFBX": {"isTruePBR": false, "shadingModel": "Phong"}}, "name": "Material.037", "pbrMetallicRoughness": {"baseColorFactor": [1, 1, 1, 1], "baseColorTexture": {"index": 0, "texCoord": 0}, "metallicFactor": 0.400000005960464, "roughnessFactor": 0.272165536880493}}], "meshes": [{"name": "square chest", "primitives": [{"attributes": {"NORMAL": 2, "POSITION": 1, "TEXCOORD_0": 3}, "indices": 0, "material": 0, "mode": 4}]}], "nodes": [{"mesh": 0, "name": "square chest", "rotation": [2.1855694143369e-08, 1.12621513901822e-16, 0, 1], "scale": [13.5385875701904, 13.5385875701904, 13.5385875701904], "translation": [0, -1.490116e-08, 0]}], "samplers": [{}], "scene": 0, "scenes": [{"name": "Root Scene", "nodes": [0]}], "textures": [{"name": "base_color_texture", "sampler": 0, "source": 0}]}