{"accessors": [{"bufferView": 0, "byteOffset": 0, "componentType": 5123, "count": 2322, "type": "SCALAR"}, {"bufferView": 1, "byteOffset": 0, "componentType": 5126, "count": 1406, "max": [0.209269419312477, 0.204662188887596, -0.00117804529145], "min": [-0.20388753712177, -0.20926624536514, -0.24509570002556], "type": "VEC3"}, {"bufferView": 2, "byteOffset": 0, "componentType": 5126, "count": 1406, "type": "VEC3"}, {"bufferView": 3, "byteOffset": 0, "componentType": 5126, "count": 1406, "type": "VEC2"}], "asset": {"generator": "FBX2glTF v0.13.1", "version": "2.0"}, "bufferViews": [{"buffer": 0, "byteLength": 4644, "byteOffset": 0, "target": 34963}, {"buffer": 0, "byteLength": 16872, "byteOffset": 4644, "target": 34962}, {"buffer": 0, "byteLength": 16872, "byteOffset": 21516, "target": 34962}, {"buffer": 0, "byteLength": 11248, "byteOffset": 38388, "target": 34962}], "buffers": [{"byteLength": 49636, "uri": "Chest_01.bin"}], "images": [{"name": "Polygon_Camping_Texture", "uri": "MainTexture_01.png"}], "materials": [{"alphaMode": "OPAQUE", "doubleSided": false, "extras": {"fromFBX": {"isTruePBR": false, "shadingModel": "Phong"}}, "name": "Material.035", "pbrMetallicRoughness": {"baseColorFactor": [1, 1, 1, 1], "baseColorTexture": {"index": 0, "texCoord": 0}, "metallicFactor": 0.400000005960464, "roughnessFactor": 0.272165536880493}}], "meshes": [{"name": "oval chest", "primitives": [{"attributes": {"NORMAL": 2, "POSITION": 1, "TEXCOORD_0": 3}, "indices": 0, "material": 0, "mode": 4}]}], "nodes": [{"mesh": 0, "name": "oval chest", "rotation": [-0.65370255708695, -0.26957935094833, -0.26957941055298, 0.653702437877655], "scale": [-1.63991975784302, -1.63991975784302, -1.63991951942444], "translation": [0, 1.49011611938477e-08, 0]}], "samplers": [{}], "scene": 0, "scenes": [{"name": "Root Scene", "nodes": [0]}], "textures": [{"name": "base_color_texture", "sampler": 0, "source": 0}]}