{"accessors": [{"bufferView": 0, "byteOffset": 0, "componentType": 5123, "count": 6792, "type": "SCALAR"}, {"bufferView": 1, "byteOffset": 0, "componentType": 5126, "count": 4652, "max": [0.00177119916770607, 0.0017364404629916, 0.00072225328767672], "min": [-0.00193360564299, -0.00151987862773, -0.00016013740969], "type": "VEC3"}, {"bufferView": 2, "byteOffset": 0, "componentType": 5126, "count": 4652, "type": "VEC3"}, {"bufferView": 3, "byteOffset": 0, "componentType": 5126, "count": 4652, "type": "VEC2"}], "asset": {"generator": "FBX2glTF v0.13.1", "version": "2.0"}, "bufferViews": [{"buffer": 0, "byteLength": 13584, "byteOffset": 0, "target": 34963}, {"buffer": 0, "byteLength": 55824, "byteOffset": 13584, "target": 34962}, {"buffer": 0, "byteLength": 55824, "byteOffset": 69408, "target": 34962}, {"buffer": 0, "byteLength": 37216, "byteOffset": 125232, "target": 34962}], "buffers": [{"byteLength": 162448, "uri": "Fire_01.bin"}], "images": [{"name": "Polygon_Camping_Texture", "uri": "MainTexture_01.png"}], "materials": [{"alphaMode": "OPAQUE", "doubleSided": false, "extras": {"fromFBX": {"isTruePBR": false, "shadingModel": "Phong"}}, "name": "Material.025", "pbrMetallicRoughness": {"baseColorFactor": [1, 1, 1, 1], "baseColorTexture": {"index": 0, "texCoord": 0}, "metallicFactor": 0.400000005960464, "roughnessFactor": 0.272165536880493}}], "meshes": [{"name": "horizontal bonfire.001", "primitives": [{"attributes": {"NORMAL": 2, "POSITION": 1, "TEXCOORD_0": 3}, "indices": 0, "material": 0, "mode": 4}]}], "nodes": [{"mesh": 0, "name": "horizontal bonfire.001", "rotation": [1.37678767941907e-07, 0.707106828689575, 0.70710676908493, -1.3767878e-07], "scale": [100, 100, 100], "translation": [0, 0, 0]}], "samplers": [{}], "scene": 0, "scenes": [{"name": "Root Scene", "nodes": [0]}], "textures": [{"name": "base_color_texture", "sampler": 0, "source": 0}]}