{"accessors": [{"bufferView": 0, "byteOffset": 0, "componentType": 5123, "count": 3810, "type": "SCALAR"}, {"bufferView": 1, "byteOffset": 0, "componentType": 5126, "count": 2780, "max": [0.0700728446245193, 0.0729827657341957, 0.0317009352147579], "min": [-0.07579942792654, -0.07948626577854, -0.01939901337028], "type": "VEC3"}, {"bufferView": 2, "byteOffset": 0, "componentType": 5126, "count": 2780, "type": "VEC3"}, {"bufferView": 3, "byteOffset": 0, "componentType": 5126, "count": 2780, "type": "VEC2"}], "asset": {"generator": "FBX2glTF v0.13.1", "version": "2.0"}, "bufferViews": [{"buffer": 0, "byteLength": 7620, "byteOffset": 0, "target": 34963}, {"buffer": 0, "byteLength": 33360, "byteOffset": 7620, "target": 34962}, {"buffer": 0, "byteLength": 33360, "byteOffset": 40980, "target": 34962}, {"buffer": 0, "byteLength": 22240, "byteOffset": 74340, "target": 34962}], "buffers": [{"byteLength": 96580, "uri": "Fire_02.bin"}], "images": [{"name": "Polygon_Camping_Texture", "uri": "MainTexture_01.png"}], "materials": [{"alphaMode": "OPAQUE", "doubleSided": false, "extras": {"fromFBX": {"isTruePBR": false, "shadingModel": "Phong"}}, "name": "Material.028", "pbrMetallicRoughness": {"baseColorFactor": [1, 1, 1, 1], "baseColorTexture": {"index": 0, "texCoord": 0}, "metallicFactor": 0.400000005960464, "roughnessFactor": 0.272165536880493}}], "meshes": [{"name": "bonfire.001", "primitives": [{"attributes": {"NORMAL": 2, "POSITION": 1, "TEXCOORD_0": 3}, "indices": 0, "material": 0, "mode": 4}]}], "nodes": [{"mesh": 0, "name": "bonfire.001", "rotation": [-0.75025171041489, 0.0589678399264812, -0.07554542273283, 0.654169738292694], "scale": [1.39070355892181, 1.39070343971252, 1.39070391654968], "translation": [7.45058059692383e-09, 0, 7.45058059692383e-09]}], "samplers": [{}], "scene": 0, "scenes": [{"name": "Root Scene", "nodes": [0]}], "textures": [{"name": "base_color_texture", "sampler": 0, "source": 0}]}