{"accessors": [{"bufferView": 0, "byteOffset": 0, "componentType": 5123, "count": 2340, "type": "SCALAR"}, {"bufferView": 1, "byteOffset": 0, "componentType": 5126, "count": 1323, "max": [0.0115778595209122, 0.0592149049043655, 0.00021055176330264], "min": [-0.01232132781297, -0.05951825901866, -9.555926954e-05], "type": "VEC3"}, {"bufferView": 2, "byteOffset": 0, "componentType": 5126, "count": 1323, "type": "VEC3"}, {"bufferView": 3, "byteOffset": 0, "componentType": 5126, "count": 1323, "type": "VEC2"}], "asset": {"generator": "FBX2glTF v0.13.1", "version": "2.0"}, "bufferViews": [{"buffer": 0, "byteLength": 4680, "byteOffset": 0, "target": 34963}, {"buffer": 0, "byteLength": 15876, "byteOffset": 4680, "target": 34962}, {"buffer": 0, "byteLength": 15876, "byteOffset": 20556, "target": 34962}, {"buffer": 0, "byteLength": 10584, "byteOffset": 36432, "target": 34962}], "buffers": [{"byteLength": 47016, "uri": "Floor_01.bin"}], "images": [{"name": "Polygon_Camping_Texture", "uri": "MainTexture_01.png"}], "materials": [{"alphaMode": "OPAQUE", "doubleSided": false, "extras": {"fromFBX": {"isTruePBR": false, "shadingModel": "Phong"}}, "name": "Material.018", "pbrMetallicRoughness": {"baseColorFactor": [1, 1, 1, 1], "baseColorTexture": {"index": 0, "texCoord": 0}, "metallicFactor": 0.400000005960464, "roughnessFactor": 0.272165536880493}}], "meshes": [{"name": "floor", "primitives": [{"attributes": {"NORMAL": 2, "POSITION": 1, "TEXCOORD_0": 3}, "indices": 0, "material": 0, "mode": 4}]}], "nodes": [{"mesh": 0, "name": "floor", "rotation": [-0.5, 0.5, 0.499999970197678, 0.500000059604645], "scale": [47.0233497619629, 5.82281827926636, 47.0233497619629], "translation": [0, 0.00454268138855696, 0]}], "samplers": [{}], "scene": 0, "scenes": [{"name": "Root Scene", "nodes": [0]}], "textures": [{"name": "base_color_texture", "sampler": 0, "source": 0}]}