{"accessors": [{"bufferView": 0, "byteOffset": 0, "componentType": 5123, "count": 420, "type": "SCALAR"}, {"bufferView": 1, "byteOffset": 0, "componentType": 5126, "count": 256, "max": [0.0106266187503934, 0.00669619999825954, 0.00092891347594559], "min": [-0.01083649136126, -0.00665073143318, -0.00019344329485], "type": "VEC3"}, {"bufferView": 2, "byteOffset": 0, "componentType": 5126, "count": 256, "type": "VEC3"}, {"bufferView": 3, "byteOffset": 0, "componentType": 5126, "count": 256, "type": "VEC2"}], "asset": {"generator": "FBX2glTF v0.13.1", "version": "2.0"}, "bufferViews": [{"buffer": 0, "byteLength": 840, "byteOffset": 0, "target": 34963}, {"buffer": 0, "byteLength": 3072, "byteOffset": 840, "target": 34962}, {"buffer": 0, "byteLength": 3072, "byteOffset": 3912, "target": 34962}, {"buffer": 0, "byteLength": 2048, "byteOffset": 6984, "target": 34962}], "buffers": [{"byteLength": 9032, "uri": "Flooring_01.bin"}], "images": [{"name": "Polygon_Camping_Texture", "uri": "MainTexture_01.png"}], "materials": [{"alphaMode": "OPAQUE", "doubleSided": false, "extras": {"fromFBX": {"isTruePBR": false, "shadingModel": "Phong"}}, "name": "Material.024", "pbrMetallicRoughness": {"baseColorFactor": [1, 1, 1, 1], "baseColorTexture": {"index": 0, "texCoord": 0}, "metallicFactor": 0.400000005960464, "roughnessFactor": 0.272165536880493}}], "meshes": [{"name": "flooring", "primitives": [{"attributes": {"NORMAL": 2, "POSITION": 1, "TEXCOORD_0": 3}, "indices": 0, "material": 0, "mode": 4}]}], "nodes": [{"mesh": 0, "name": "flooring", "rotation": [-0.70710682868957, 0, 0, 0.707106709480286], "scale": [31.9681129455566, 67.8342056274414, 67.8342056274414], "translation": [0, 0, -2.980232e-08]}], "samplers": [{}], "scene": 0, "scenes": [{"name": "Root Scene", "nodes": [0]}], "textures": [{"name": "base_color_texture", "sampler": 0, "source": 0}]}