{"accessors": [{"bufferView": 0, "byteOffset": 0, "componentType": 5123, "count": 3330, "type": "SCALAR"}, {"bufferView": 1, "byteOffset": 0, "componentType": 5126, "count": 2156, "max": [0.0158584788441658, 0.00999008025974035, 0.0116222510114312], "min": [-0.01841594837606, -0.01027620770037, -0.01119364146143], "type": "VEC3"}, {"bufferView": 2, "byteOffset": 0, "componentType": 5126, "count": 2156, "type": "VEC3"}, {"bufferView": 3, "byteOffset": 0, "componentType": 5126, "count": 2156, "type": "VEC2"}, {"bufferView": 4, "byteOffset": 0, "componentType": 5123, "count": 3354, "type": "SCALAR"}, {"bufferView": 5, "byteOffset": 0, "componentType": 5126, "count": 2230, "max": [0.0184282530099154, 0.00999945774674416, 0.0116644902154803], "min": [-0.01841971278191, -0.01026682928205, -0.01115140132606], "type": "VEC3"}, {"bufferView": 6, "byteOffset": 0, "componentType": 5126, "count": 2230, "type": "VEC3"}, {"bufferView": 7, "byteOffset": 0, "componentType": 5126, "count": 2230, "type": "VEC2"}], "asset": {"generator": "FBX2glTF v0.13.1", "version": "2.0"}, "bufferViews": [{"buffer": 0, "byteLength": 6660, "byteOffset": 0, "target": 34963}, {"buffer": 0, "byteLength": 25872, "byteOffset": 6660, "target": 34962}, {"buffer": 0, "byteLength": 25872, "byteOffset": 32532, "target": 34962}, {"buffer": 0, "byteLength": 17248, "byteOffset": 58404, "target": 34962}, {"buffer": 0, "byteLength": 6708, "byteOffset": 75652, "target": 34963}, {"buffer": 0, "byteLength": 26760, "byteOffset": 82360, "target": 34962}, {"buffer": 0, "byteLength": 26760, "byteOffset": 109120, "target": 34962}, {"buffer": 0, "byteLength": 17840, "byteOffset": 135880, "target": 34962}], "buffers": [{"byteLength": 153720, "uri": "Helmet.bin"}], "images": [{"name": "Polygon_Camping_Texture", "uri": "MainTexture_01.png"}], "materials": [{"alphaMode": "OPAQUE", "doubleSided": false, "extras": {"fromFBX": {"isTruePBR": false, "shadingModel": "Phong"}}, "name": "Material.003", "pbrMetallicRoughness": {"baseColorFactor": [1, 1, 1, 1], "baseColorTexture": {"index": 0, "texCoord": 0}, "metallicFactor": 0.400000005960464, "roughnessFactor": 0.272165536880493}}, {"alphaMode": "OPAQUE", "doubleSided": false, "extras": {"fromFBX": {"isTruePBR": false, "shadingModel": "Phong"}}, "name": "Material.002", "pbrMetallicRoughness": {"baseColorFactor": [1, 1, 1, 1], "baseColorTexture": {"index": 0, "texCoord": 0}, "metallicFactor": 0.400000005960464, "roughnessFactor": 0.272165536880493}}], "meshes": [{"name": "broken helmet", "primitives": [{"attributes": {"NORMAL": 2, "POSITION": 1, "TEXCOORD_0": 3}, "indices": 0, "material": 0, "mode": 4}]}, {"name": "helmet", "primitives": [{"attributes": {"NORMAL": 6, "POSITION": 5, "TEXCOORD_0": 7}, "indices": 4, "material": 1, "mode": 4}]}], "nodes": [{"mesh": 0, "name": "broken helmet", "rotation": [-0.70710682868957, 0, 0, 0.707106709480286], "scale": [5.76932096481323, 5.76932096481323, 5.76932096481323], "translation": [0, 7.45058059692383e-09, -3.64e-12]}, {"mesh": 1, "name": "helmet", "rotation": [-0.70710682868957, 0, 0, 0.707106709480286], "scale": [5.76932096481323, 5.76932096481323, 5.76932096481323], "translation": [0, 7.45058059692383e-09, -2.3e-13]}], "samplers": [{}], "scene": 0, "scenes": [{"name": "Root Scene", "nodes": [0, 1]}], "textures": [{"name": "base_color_texture", "sampler": 0, "source": 0}]}