{"accessors": [{"bufferView": 0, "byteOffset": 0, "componentType": 5123, "count": 6372, "type": "SCALAR"}, {"bufferView": 1, "byteOffset": 0, "componentType": 5126, "count": 3722, "max": [0.00824877806007862, 0.00410468084737659, 0.0124909970909357], "min": [-0.00795409549028, -0.00893373880535, -0.00113930401858], "type": "VEC3"}, {"bufferView": 2, "byteOffset": 0, "componentType": 5126, "count": 3722, "type": "VEC3"}, {"bufferView": 3, "byteOffset": 0, "componentType": 5126, "count": 3722, "type": "VEC2"}], "asset": {"generator": "FBX2glTF v0.13.1", "version": "2.0"}, "bufferViews": [{"buffer": 0, "byteLength": 12744, "byteOffset": 0, "target": 34963}, {"buffer": 0, "byteLength": 44664, "byteOffset": 12744, "target": 34962}, {"buffer": 0, "byteLength": 44664, "byteOffset": 57408, "target": 34962}, {"buffer": 0, "byteLength": 29776, "byteOffset": 102072, "target": 34962}], "buffers": [{"byteLength": 131848, "uri": "Pillar_01.bin"}], "images": [{"name": "Polygon_Camping_Texture", "uri": "MainTexture_01.png"}], "materials": [{"alphaMode": "OPAQUE", "doubleSided": false, "extras": {"fromFBX": {"isTruePBR": false, "shadingModel": "Phong"}}, "name": "Material.019", "pbrMetallicRoughness": {"baseColorFactor": [1, 1, 1, 1], "baseColorTexture": {"index": 0, "texCoord": 0}, "metallicFactor": 0.400000005960464, "roughnessFactor": 0.272165536880493}}], "meshes": [{"name": "pillar", "primitives": [{"attributes": {"NORMAL": 2, "POSITION": 1, "TEXCOORD_0": 3}, "indices": 0, "material": 0, "mode": 4}]}], "nodes": [{"mesh": 0, "name": "pillar", "rotation": [-0.70710682868957, 0, 0, 0.707106709480286], "scale": [100, 100, 100], "translation": [-1.86265e-09, 0.00179579854011536, -4.6566e-10]}], "samplers": [{}], "scene": 0, "scenes": [{"name": "Root Scene", "nodes": [0]}], "textures": [{"name": "base_color_texture", "sampler": 0, "source": 0}]}