{"accessors": [{"bufferView": 0, "byteOffset": 0, "componentType": 5123, "count": 756, "type": "SCALAR"}, {"bufferView": 1, "byteOffset": 0, "componentType": 5126, "count": 496, "max": [0.0192616637796164, 0.0192616637796164, 0.00456274626776576], "min": [-0.01926166377962, -0.01926166377962, 2.17007473111153e-05], "type": "VEC3"}, {"bufferView": 2, "byteOffset": 0, "componentType": 5126, "count": 496, "type": "VEC3"}, {"bufferView": 3, "byteOffset": 0, "componentType": 5126, "count": 496, "type": "VEC2"}], "asset": {"generator": "FBX2glTF v0.13.1", "version": "2.0"}, "bufferViews": [{"buffer": 0, "byteLength": 1512, "byteOffset": 0, "target": 34963}, {"buffer": 0, "byteLength": 5952, "byteOffset": 1512, "target": 34962}, {"buffer": 0, "byteLength": 5952, "byteOffset": 7464, "target": 34962}, {"buffer": 0, "byteLength": 3968, "byteOffset": 13416, "target": 34962}], "buffers": [{"byteLength": 17384, "uri": "Plate_01.bin"}], "images": [{"name": "Polygon_Camping_Texture", "uri": "MainTexture_01.png"}], "materials": [{"alphaMode": "OPAQUE", "doubleSided": false, "extras": {"fromFBX": {"isTruePBR": false, "shadingModel": "Phong"}}, "name": "Material.042", "pbrMetallicRoughness": {"baseColorFactor": [1, 1, 1, 1], "baseColorTexture": {"index": 0, "texCoord": 0}, "metallicFactor": 0.400000005960464, "roughnessFactor": 0.272165536880493}}], "meshes": [{"name": "plate", "primitives": [{"attributes": {"NORMAL": 2, "POSITION": 1, "TEXCOORD_0": 3}, "indices": 0, "material": 0, "mode": 4}]}], "nodes": [{"mesh": 0, "name": "plate", "rotation": [-0.70710682868957, 0, 0, 0.707106709480286], "scale": [3.78544545173645, 3.78544545173645, 3.78544545173645], "translation": [0, 0, 0]}], "samplers": [{}], "scene": 0, "scenes": [{"name": "Root Scene", "nodes": [0]}], "textures": [{"name": "base_color_texture", "sampler": 0, "source": 0}]}