{"accessors": [{"bufferView": 0, "byteOffset": 0, "componentType": 5123, "count": 600, "type": "SCALAR"}, {"bufferView": 1, "byteOffset": 0, "componentType": 5126, "count": 412, "max": [0.0096955606713891, 0.0111957574263215, 0.00496639218181372], "min": [-0.00969606172293, -0.01119575742632, -0.02802573703229], "type": "VEC3"}, {"bufferView": 2, "byteOffset": 0, "componentType": 5126, "count": 412, "type": "VEC3"}, {"bufferView": 3, "byteOffset": 0, "componentType": 5126, "count": 412, "type": "VEC2"}], "asset": {"generator": "FBX2glTF v0.13.1", "version": "2.0"}, "bufferViews": [{"buffer": 0, "byteLength": 1200, "byteOffset": 0, "target": 34963}, {"buffer": 0, "byteLength": 4944, "byteOffset": 1200, "target": 34962}, {"buffer": 0, "byteLength": 4944, "byteOffset": 6144, "target": 34962}, {"buffer": 0, "byteLength": 3296, "byteOffset": 11088, "target": 34962}], "buffers": [{"byteLength": 14384, "uri": "Pouch_01.bin"}], "images": [{"name": "Polygon_Camping_Texture", "uri": "MainTexture_01.png"}], "materials": [{"alphaMode": "OPAQUE", "doubleSided": false, "extras": {"fromFBX": {"isTruePBR": false, "shadingModel": "Phong"}}, "name": "Material.043", "pbrMetallicRoughness": {"baseColorFactor": [1, 1, 1, 1], "baseColorTexture": {"index": 0, "texCoord": 0}, "metallicFactor": 0.400000005960464, "roughnessFactor": 0.272165536880493}}], "meshes": [{"name": "pouch", "primitives": [{"attributes": {"NORMAL": 2, "POSITION": 1, "TEXCOORD_0": 3}, "indices": 0, "material": 0, "mode": 4}]}], "nodes": [{"mesh": 0, "name": "pouch", "rotation": [-0.70710682868957, 0, 0, 0.707106709480286], "scale": [1.96552109718323, 1.96552109718323, 1.96552109718323], "translation": [0, 3.72529029846191e-09, 0]}], "samplers": [{}], "scene": 0, "scenes": [{"name": "Root Scene", "nodes": [0]}], "textures": [{"name": "base_color_texture", "sampler": 0, "source": 0}]}