{"accessors": [{"bufferView": 0, "byteOffset": 0, "componentType": 5123, "count": 960, "type": "SCALAR"}, {"bufferView": 1, "byteOffset": 0, "componentType": 5126, "count": 536, "max": [0.0108428997918963, 0.010855445638299, 0.00275257579050958], "min": [-0.01068473327905, -0.01085311360657, -0.00032144709257], "type": "VEC3"}, {"bufferView": 2, "byteOffset": 0, "componentType": 5126, "count": 536, "type": "VEC3"}, {"bufferView": 3, "byteOffset": 0, "componentType": 5126, "count": 536, "type": "VEC2"}, {"bufferView": 4, "byteOffset": 0, "componentType": 5123, "count": 1308, "type": "SCALAR"}, {"bufferView": 5, "byteOffset": 0, "componentType": 5126, "count": 806, "max": [0.0120233129709959, -0.0009745057323, 0.012239976786077], "min": [-0.01199220400304, -0.00390479667112, -0.01894662715495], "type": "VEC3"}, {"bufferView": 6, "byteOffset": 0, "componentType": 5126, "count": 806, "type": "VEC3"}, {"bufferView": 7, "byteOffset": 0, "componentType": 5126, "count": 806, "type": "VEC2"}], "asset": {"generator": "FBX2glTF v0.13.1", "version": "2.0"}, "bufferViews": [{"buffer": 0, "byteLength": 1920, "byteOffset": 0, "target": 34963}, {"buffer": 0, "byteLength": 6432, "byteOffset": 1920, "target": 34962}, {"buffer": 0, "byteLength": 6432, "byteOffset": 8352, "target": 34962}, {"buffer": 0, "byteLength": 4288, "byteOffset": 14784, "target": 34962}, {"buffer": 0, "byteLength": 2616, "byteOffset": 19072, "target": 34963}, {"buffer": 0, "byteLength": 9672, "byteOffset": 21688, "target": 34962}, {"buffer": 0, "byteLength": 9672, "byteOffset": 31360, "target": 34962}, {"buffer": 0, "byteLength": 6448, "byteOffset": 41032, "target": 34962}], "buffers": [{"byteLength": 47480, "uri": "Shield.bin"}], "images": [{"name": "Polygon_Camping_Texture", "uri": "MainTexture_01.png"}], "materials": [{"alphaMode": "OPAQUE", "doubleSided": false, "extras": {"fromFBX": {"isTruePBR": false, "shadingModel": "Phong"}}, "name": "Material.020", "pbrMetallicRoughness": {"baseColorFactor": [1, 1, 1, 1], "baseColorTexture": {"index": 0, "texCoord": 0}, "metallicFactor": 0.400000005960464, "roughnessFactor": 0.272165536880493}}, {"alphaMode": "OPAQUE", "doubleSided": false, "extras": {"fromFBX": {"isTruePBR": false, "shadingModel": "Phong"}}, "name": "Material.021", "pbrMetallicRoughness": {"baseColorFactor": [1, 1, 1, 1], "baseColorTexture": {"index": 0, "texCoord": 0}, "metallicFactor": 0.400000005960464, "roughnessFactor": 0.272165536880493}}], "meshes": [{"name": "shield", "primitives": [{"attributes": {"NORMAL": 2, "POSITION": 1, "TEXCOORD_0": 3}, "indices": 0, "material": 0, "mode": 4}]}, {"name": "shield 2", "primitives": [{"attributes": {"NORMAL": 6, "POSITION": 5, "TEXCOORD_0": 7}, "indices": 4, "material": 1, "mode": 4}]}], "nodes": [{"mesh": 0, "name": "shield", "rotation": [-0.0308436639607, -0.03084351122379, -0.70643371343613, 0.706433832645416], "scale": [13.3167324066162, 13.3167324066162, 13.3167324066162], "translation": [0, 2.3283064365387e-10, 0]}, {"mesh": 1, "name": "shield 2", "rotation": [-0.70710682868957, 0, 0, 0.707106709480286], "scale": [11.4398126602173, 11.4398126602173, 11.4398126602173], "translation": [0, 0, 0]}], "samplers": [{}], "scene": 0, "scenes": [{"name": "Root Scene", "nodes": [0, 1]}], "textures": [{"name": "base_color_texture", "sampler": 0, "source": 0}]}