{"accessors": [{"bufferView": 0, "byteOffset": 0, "componentType": 5123, "count": 2808, "type": "SCALAR"}, {"bufferView": 1, "byteOffset": 0, "componentType": 5126, "count": 1854, "max": [0.00991264171898365, 0.0102408397942781, 0.00054578017443418], "min": [-0.00915513280779, -0.01027681678534, 1.13343257908127e-05], "type": "VEC3"}, {"bufferView": 2, "byteOffset": 0, "componentType": 5126, "count": 1854, "type": "VEC3"}, {"bufferView": 3, "byteOffset": 0, "componentType": 5126, "count": 1854, "type": "VEC2"}], "asset": {"generator": "FBX2glTF v0.13.1", "version": "2.0"}, "bufferViews": [{"buffer": 0, "byteLength": 5616, "byteOffset": 0, "target": 34963}, {"buffer": 0, "byteLength": 22248, "byteOffset": 5616, "target": 34962}, {"buffer": 0, "byteLength": 22248, "byteOffset": 27864, "target": 34962}, {"buffer": 0, "byteLength": 14832, "byteOffset": 50112, "target": 34962}], "buffers": [{"byteLength": 64944, "uri": "Stone_Floor_01.bin"}], "images": [{"name": "Polygon_Camping_Texture", "uri": "MainTexture_01.png"}], "materials": [{"alphaMode": "OPAQUE", "doubleSided": false, "extras": {"fromFBX": {"isTruePBR": false, "shadingModel": "Phong"}}, "name": "Material.017", "pbrMetallicRoughness": {"baseColorFactor": [1, 1, 1, 1], "baseColorTexture": {"index": 0, "texCoord": 0}, "metallicFactor": 0.400000005960464, "roughnessFactor": 0.272165536880493}}], "meshes": [{"name": "stone floor", "primitives": [{"attributes": {"NORMAL": 2, "POSITION": 1, "TEXCOORD_0": 3}, "indices": 0, "material": 0, "mode": 4}]}], "nodes": [{"mesh": 0, "name": "stone floor", "rotation": [-0.70710682868957, 0, 0, 0.707106709480286], "scale": [60.7289733886719, 60.7289733886719, 60.7289733886719], "translation": [-0.02388016879559, 4.65661287307739e-10, 0.0372817516326904]}], "samplers": [{}], "scene": 0, "scenes": [{"name": "Root Scene", "nodes": [0]}], "textures": [{"name": "base_color_texture", "sampler": 0, "source": 0}]}