{"accessors": [{"bufferView": 0, "byteOffset": 0, "componentType": 5123, "count": 1044, "type": "SCALAR"}, {"bufferView": 1, "byteOffset": 0, "componentType": 5126, "count": 668, "max": [0.0373207964003086, 0.0107378708198667, 0.372732907533646], "min": [-0.12218353897333, -0.02799098007381, -0.09649676829576], "type": "VEC3"}, {"bufferView": 2, "byteOffset": 0, "componentType": 5126, "count": 668, "type": "VEC3"}, {"bufferView": 3, "byteOffset": 0, "componentType": 5126, "count": 668, "type": "VEC2"}, {"bufferView": 4, "byteOffset": 0, "componentType": 5123, "count": 1080, "type": "SCALAR"}, {"bufferView": 5, "byteOffset": 0, "componentType": 5126, "count": 676, "max": [0.107910580933094, 0.0292272940278053, 0.534019112586975], "min": [-0.10784256458283, -0.02658746577799, -0.16090781986713], "type": "VEC3"}, {"bufferView": 6, "byteOffset": 0, "componentType": 5126, "count": 676, "type": "VEC3"}, {"bufferView": 7, "byteOffset": 0, "componentType": 5126, "count": 676, "type": "VEC2"}, {"bufferView": 8, "byteOffset": 0, "componentType": 5123, "count": 1926, "type": "SCALAR"}, {"bufferView": 9, "byteOffset": 0, "componentType": 5126, "count": 957, "max": [0.0591443628072739, 0.00877970177680254, 0.299824506044388], "min": [-0.05860446020961, -0.01122029870749, -0.0483409576118], "type": "VEC3"}, {"bufferView": 10, "byteOffset": 0, "componentType": 5126, "count": 957, "type": "VEC3"}, {"bufferView": 11, "byteOffset": 0, "componentType": 5126, "count": 957, "type": "VEC2"}, {"bufferView": 12, "byteOffset": 0, "componentType": 5123, "count": 8730, "type": "SCALAR"}, {"bufferView": 13, "byteOffset": 0, "componentType": 5126, "count": 5757, "max": [0.040040347725153, 0.0103326756507158, 0.0929879769682884], "min": [-0.04063621535897, -0.01269455254078, -0.46459531784058], "type": "VEC3"}, {"bufferView": 14, "byteOffset": 0, "componentType": 5126, "count": 5757, "type": "VEC3"}, {"bufferView": 15, "byteOffset": 0, "componentType": 5126, "count": 5757, "type": "VEC2"}, {"bufferView": 16, "byteOffset": 0, "componentType": 5123, "count": 3876, "type": "SCALAR"}, {"bufferView": 17, "byteOffset": 0, "componentType": 5126, "count": 2484, "max": [0.044669583439827, 0.0114121260121465, 0.241700544953346], "min": [-0.04509776458144, -0.01290636882186, -0.03780585899949], "type": "VEC3"}, {"bufferView": 18, "byteOffset": 0, "componentType": 5126, "count": 2484, "type": "VEC3"}, {"bufferView": 19, "byteOffset": 0, "componentType": 5126, "count": 2484, "type": "VEC2"}, {"bufferView": 20, "byteOffset": 0, "componentType": 5123, "count": 954, "type": "SCALAR"}, {"bufferView": 21, "byteOffset": 0, "componentType": 5126, "count": 640, "max": [0.0193466115742922, 0.00763307372108102, 0.0416433699429035], "min": [-0.01937471143901, -0.00637025153264, -0.20732514560223], "type": "VEC3"}, {"bufferView": 22, "byteOffset": 0, "componentType": 5126, "count": 640, "type": "VEC3"}, {"bufferView": 23, "byteOffset": 0, "componentType": 5126, "count": 640, "type": "VEC2"}, {"bufferView": 24, "byteOffset": 0, "componentType": 5123, "count": 1968, "type": "SCALAR"}, {"bufferView": 25, "byteOffset": 0, "componentType": 5126, "count": 1127, "max": [0.0537799820303917, 0.0088031031191349, 0.0531389601528645], "min": [-0.05381899699569, -0.00602706521749, -0.31430396437645], "type": "VEC3"}, {"bufferView": 26, "byteOffset": 0, "componentType": 5126, "count": 1127, "type": "VEC3"}, {"bufferView": 27, "byteOffset": 0, "componentType": 5126, "count": 1127, "type": "VEC2"}, {"bufferView": 28, "byteOffset": 0, "componentType": 5123, "count": 2592, "type": "SCALAR"}, {"bufferView": 29, "byteOffset": 0, "componentType": 5126, "count": 1520, "max": [0.0536289215087891, 0.0088031031191349, 0.0531151965260506], "min": [-0.05397005751729, -0.00602706521749, -0.30878379940987], "type": "VEC3"}, {"bufferView": 30, "byteOffset": 0, "componentType": 5126, "count": 1520, "type": "VEC3"}, {"bufferView": 31, "byteOffset": 0, "componentType": 5126, "count": 1520, "type": "VEC2"}, {"bufferView": 32, "byteOffset": 0, "componentType": 5123, "count": 1116, "type": "SCALAR"}, {"bufferView": 33, "byteOffset": 0, "componentType": 5126, "count": 728, "max": [0.019354609772563, 0.00757746398448944, 0.0416512824594975], "min": [-0.0193667113781, -0.0064258617349, -0.20731723308563], "type": "VEC3"}, {"bufferView": 34, "byteOffset": 0, "componentType": 5126, "count": 728, "type": "VEC3"}, {"bufferView": 35, "byteOffset": 0, "componentType": 5126, "count": 728, "type": "VEC2"}, {"bufferView": 36, "byteOffset": 0, "componentType": 5123, "count": 8814, "type": "SCALAR"}, {"bufferView": 37, "byteOffset": 0, "componentType": 5126, "count": 5808, "max": [0.0404675267636776, 0.010120315477252, 0.0929879769682884], "min": [-0.04020903632045, -0.01290691364557, -0.46459531784058], "type": "VEC3"}, {"bufferView": 38, "byteOffset": 0, "componentType": 5126, "count": 5808, "type": "VEC3"}, {"bufferView": 39, "byteOffset": 0, "componentType": 5126, "count": 5808, "type": "VEC2"}, {"bufferView": 40, "byteOffset": 0, "componentType": 5123, "count": 4092, "type": "SCALAR"}, {"bufferView": 41, "byteOffset": 0, "componentType": 5126, "count": 2597, "max": [0.0449662208557129, 0.0114121260121465, 0.241700544953346], "min": [-0.04480113089085, -0.01290636882186, -0.03780585899949], "type": "VEC3"}, {"bufferView": 42, "byteOffset": 0, "componentType": 5126, "count": 2597, "type": "VEC3"}, {"bufferView": 43, "byteOffset": 0, "componentType": 5126, "count": 2597, "type": "VEC2"}, {"bufferView": 44, "byteOffset": 0, "componentType": 5123, "count": 744, "type": "SCALAR"}, {"bufferView": 45, "byteOffset": 0, "componentType": 5126, "count": 450, "max": [0.0146621987223625, 0.00731033599004149, 0.410263419151306], "min": [-0.0148857254535, -0.00731033599004, -0.11964595317841], "type": "VEC3"}, {"bufferView": 46, "byteOffset": 0, "componentType": 5126, "count": 450, "type": "VEC3"}, {"bufferView": 47, "byteOffset": 0, "componentType": 5126, "count": 450, "type": "VEC2"}, {"bufferView": 48, "byteOffset": 0, "componentType": 5123, "count": 2202, "type": "SCALAR"}, {"bufferView": 49, "byteOffset": 0, "componentType": 5126, "count": 1390, "max": [0.0431858561933041, 0.0122167998924851, 0.355745702981949], "min": [-0.01157663203776, -0.01077303662896, -0.08298303186893], "type": "VEC3"}, {"bufferView": 50, "byteOffset": 0, "componentType": 5126, "count": 1390, "type": "VEC3"}, {"bufferView": 51, "byteOffset": 0, "componentType": 5126, "count": 1390, "type": "VEC2"}, {"bufferView": 52, "byteOffset": 0, "componentType": 5123, "count": 2364, "type": "SCALAR"}, {"bufferView": 53, "byteOffset": 0, "componentType": 5126, "count": 1480, "max": [0.0432023666799068, 0.0121897049248219, 0.357628494501114], "min": [-0.01156012527645, -0.01080013159662, -0.08110021054745], "type": "VEC3"}, {"bufferView": 54, "byteOffset": 0, "componentType": 5126, "count": 1480, "type": "VEC3"}, {"bufferView": 55, "byteOffset": 0, "componentType": 5126, "count": 1480, "type": "VEC2"}, {"bufferView": 56, "byteOffset": 0, "componentType": 5123, "count": 2118, "type": "SCALAR"}, {"bufferView": 57, "byteOffset": 0, "componentType": 5126, "count": 1304, "max": [0.0431461185216904, 0.0121644241735339, 0.302831619977951], "min": [-0.01161637250334, -0.01082541234791, -0.08112137019634], "type": "VEC3"}, {"bufferView": 58, "byteOffset": 0, "componentType": 5126, "count": 1304, "type": "VEC3"}, {"bufferView": 59, "byteOffset": 0, "componentType": 5126, "count": 1304, "type": "VEC2"}], "asset": {"generator": "FBX2glTF v0.13.1", "version": "2.0"}, "bufferViews": [{"buffer": 0, "byteLength": 2088, "byteOffset": 0, "target": 34963}, {"buffer": 0, "byteLength": 8016, "byteOffset": 2088, "target": 34962}, {"buffer": 0, "byteLength": 8016, "byteOffset": 10104, "target": 34962}, {"buffer": 0, "byteLength": 5344, "byteOffset": 18120, "target": 34962}, {"buffer": 0, "byteLength": 2160, "byteOffset": 23464, "target": 34963}, {"buffer": 0, "byteLength": 8112, "byteOffset": 25624, "target": 34962}, {"buffer": 0, "byteLength": 8112, "byteOffset": 33736, "target": 34962}, {"buffer": 0, "byteLength": 5408, "byteOffset": 41848, "target": 34962}, {"buffer": 0, "byteLength": 3852, "byteOffset": 47256, "target": 34963}, {"buffer": 0, "byteLength": 11484, "byteOffset": 51108, "target": 34962}, {"buffer": 0, "byteLength": 11484, "byteOffset": 62592, "target": 34962}, {"buffer": 0, "byteLength": 7656, "byteOffset": 74076, "target": 34962}, {"buffer": 0, "byteLength": 17460, "byteOffset": 81732, "target": 34963}, {"buffer": 0, "byteLength": 69084, "byteOffset": 99192, "target": 34962}, {"buffer": 0, "byteLength": 69084, "byteOffset": 168276, "target": 34962}, {"buffer": 0, "byteLength": 46056, "byteOffset": 237360, "target": 34962}, {"buffer": 0, "byteLength": 7752, "byteOffset": 283416, "target": 34963}, {"buffer": 0, "byteLength": 29808, "byteOffset": 291168, "target": 34962}, {"buffer": 0, "byteLength": 29808, "byteOffset": 320976, "target": 34962}, {"buffer": 0, "byteLength": 19872, "byteOffset": 350784, "target": 34962}, {"buffer": 0, "byteLength": 1908, "byteOffset": 370656, "target": 34963}, {"buffer": 0, "byteLength": 7680, "byteOffset": 372564, "target": 34962}, {"buffer": 0, "byteLength": 7680, "byteOffset": 380244, "target": 34962}, {"buffer": 0, "byteLength": 5120, "byteOffset": 387924, "target": 34962}, {"buffer": 0, "byteLength": 3936, "byteOffset": 393044, "target": 34963}, {"buffer": 0, "byteLength": 13524, "byteOffset": 396980, "target": 34962}, {"buffer": 0, "byteLength": 13524, "byteOffset": 410504, "target": 34962}, {"buffer": 0, "byteLength": 9016, "byteOffset": 424028, "target": 34962}, {"buffer": 0, "byteLength": 5184, "byteOffset": 433044, "target": 34963}, {"buffer": 0, "byteLength": 18240, "byteOffset": 438228, "target": 34962}, {"buffer": 0, "byteLength": 18240, "byteOffset": 456468, "target": 34962}, {"buffer": 0, "byteLength": 12160, "byteOffset": 474708, "target": 34962}, {"buffer": 0, "byteLength": 2232, "byteOffset": 486868, "target": 34963}, {"buffer": 0, "byteLength": 8736, "byteOffset": 489100, "target": 34962}, {"buffer": 0, "byteLength": 8736, "byteOffset": 497836, "target": 34962}, {"buffer": 0, "byteLength": 5824, "byteOffset": 506572, "target": 34962}, {"buffer": 0, "byteLength": 17628, "byteOffset": 512396, "target": 34963}, {"buffer": 0, "byteLength": 69696, "byteOffset": 530024, "target": 34962}, {"buffer": 0, "byteLength": 69696, "byteOffset": 599720, "target": 34962}, {"buffer": 0, "byteLength": 46464, "byteOffset": 669416, "target": 34962}, {"buffer": 0, "byteLength": 8184, "byteOffset": 715880, "target": 34963}, {"buffer": 0, "byteLength": 31164, "byteOffset": 724064, "target": 34962}, {"buffer": 0, "byteLength": 31164, "byteOffset": 755228, "target": 34962}, {"buffer": 0, "byteLength": 20776, "byteOffset": 786392, "target": 34962}, {"buffer": 0, "byteLength": 1488, "byteOffset": 807168, "target": 34963}, {"buffer": 0, "byteLength": 5400, "byteOffset": 808656, "target": 34962}, {"buffer": 0, "byteLength": 5400, "byteOffset": 814056, "target": 34962}, {"buffer": 0, "byteLength": 3600, "byteOffset": 819456, "target": 34962}, {"buffer": 0, "byteLength": 4404, "byteOffset": 823056, "target": 34963}, {"buffer": 0, "byteLength": 16680, "byteOffset": 827460, "target": 34962}, {"buffer": 0, "byteLength": 16680, "byteOffset": 844140, "target": 34962}, {"buffer": 0, "byteLength": 11120, "byteOffset": 860820, "target": 34962}, {"buffer": 0, "byteLength": 4728, "byteOffset": 871940, "target": 34963}, {"buffer": 0, "byteLength": 17760, "byteOffset": 876668, "target": 34962}, {"buffer": 0, "byteLength": 17760, "byteOffset": 894428, "target": 34962}, {"buffer": 0, "byteLength": 11840, "byteOffset": 912188, "target": 34962}, {"buffer": 0, "byteLength": 4236, "byteOffset": 924028, "target": 34963}, {"buffer": 0, "byteLength": 15648, "byteOffset": 928264, "target": 34962}, {"buffer": 0, "byteLength": 15648, "byteOffset": 943912, "target": 34962}, {"buffer": 0, "byteLength": 10432, "byteOffset": 959560, "target": 34962}], "buffers": [{"byteLength": 969992, "uri": "Sword.bin"}], "images": [{"name": "Polygon_Camping_Texture", "uri": "MainTexture_01.png"}], "materials": [{"alphaMode": "OPAQUE", "doubleSided": false, "extras": {"fromFBX": {"isTruePBR": false, "shadingModel": "Phong"}}, "name": "Material.010", "pbrMetallicRoughness": {"baseColorFactor": [1, 1, 1, 1], "baseColorTexture": {"index": 0, "texCoord": 0}, "metallicFactor": 0.400000005960464, "roughnessFactor": 0.272165536880493}}, {"alphaMode": "OPAQUE", "doubleSided": false, "extras": {"fromFBX": {"isTruePBR": false, "shadingModel": "Phong"}}, "name": "Material.011", "pbrMetallicRoughness": {"baseColorFactor": [1, 1, 1, 1], "baseColorTexture": {"index": 0, "texCoord": 0}, "metallicFactor": 0.400000005960464, "roughnessFactor": 0.272165536880493}}, {"alphaMode": "OPAQUE", "doubleSided": false, "extras": {"fromFBX": {"isTruePBR": false, "shadingModel": "Phong"}}, "name": "Material.012", "pbrMetallicRoughness": {"baseColorFactor": [1, 1, 1, 1], "baseColorTexture": {"index": 0, "texCoord": 0}, "metallicFactor": 0.400000005960464, "roughnessFactor": 0.272165536880493}}, {"alphaMode": "OPAQUE", "doubleSided": false, "extras": {"fromFBX": {"isTruePBR": false, "shadingModel": "Phong"}}, "name": "Material.013", "pbrMetallicRoughness": {"baseColorFactor": [1, 1, 1, 1], "baseColorTexture": {"index": 0, "texCoord": 0}, "metallicFactor": 0.400000005960464, "roughnessFactor": 0.272165536880493}}, {"alphaMode": "OPAQUE", "doubleSided": false, "extras": {"fromFBX": {"isTruePBR": false, "shadingModel": "Phong"}}, "name": "Material.015", "pbrMetallicRoughness": {"baseColorFactor": [1, 1, 1, 1], "baseColorTexture": {"index": 0, "texCoord": 0}, "metallicFactor": 0.400000005960464, "roughnessFactor": 0.272165536880493}}, {"alphaMode": "OPAQUE", "doubleSided": false, "extras": {"fromFBX": {"isTruePBR": false, "shadingModel": "Phong"}}, "name": "Material.001", "pbrMetallicRoughness": {"baseColorFactor": [1, 1, 1, 1], "baseColorTexture": {"index": 0, "texCoord": 0}, "metallicFactor": 0.400000005960464, "roughnessFactor": 0.272165536880493}}, {"alphaMode": "OPAQUE", "doubleSided": false, "extras": {"fromFBX": {"isTruePBR": false, "shadingModel": "Phong"}}, "name": "Material.004", "pbrMetallicRoughness": {"baseColorFactor": [1, 1, 1, 1], "baseColorTexture": {"index": 0, "texCoord": 0}, "metallicFactor": 0.400000005960464, "roughnessFactor": 0.272165536880493}}, {"alphaMode": "OPAQUE", "doubleSided": false, "extras": {"fromFBX": {"isTruePBR": false, "shadingModel": "Phong"}}, "name": "Material.005", "pbrMetallicRoughness": {"baseColorFactor": [1, 1, 1, 1], "baseColorTexture": {"index": 0, "texCoord": 0}, "metallicFactor": 0.400000005960464, "roughnessFactor": 0.272165536880493}}, {"alphaMode": "OPAQUE", "doubleSided": false, "extras": {"fromFBX": {"isTruePBR": false, "shadingModel": "Phong"}}, "name": "Material", "pbrMetallicRoughness": {"baseColorFactor": [1, 1, 1, 1], "baseColorTexture": {"index": 0, "texCoord": 0}, "metallicFactor": 0.400000005960464, "roughnessFactor": 0.272165536880493}}, {"alphaMode": "OPAQUE", "doubleSided": false, "extras": {"fromFBX": {"isTruePBR": false, "shadingModel": "Phong"}}, "name": "Material.014", "pbrMetallicRoughness": {"baseColorFactor": [1, 1, 1, 1], "baseColorTexture": {"index": 0, "texCoord": 0}, "metallicFactor": 0.400000005960464, "roughnessFactor": 0.272165536880493}}, {"alphaMode": "OPAQUE", "doubleSided": false, "extras": {"fromFBX": {"isTruePBR": false, "shadingModel": "Phong"}}, "name": "Material.016", "pbrMetallicRoughness": {"baseColorFactor": [1, 1, 1, 1], "baseColorTexture": {"index": 0, "texCoord": 0}, "metallicFactor": 0.400000005960464, "roughnessFactor": 0.272165536880493}}, {"alphaMode": "OPAQUE", "doubleSided": false, "extras": {"fromFBX": {"isTruePBR": false, "shadingModel": "Phong"}}, "name": "Material.009", "pbrMetallicRoughness": {"baseColorFactor": [1, 1, 1, 1], "baseColorTexture": {"index": 0, "texCoord": 0}, "metallicFactor": 0.400000005960464, "roughnessFactor": 0.272165536880493}}, {"alphaMode": "OPAQUE", "doubleSided": false, "extras": {"fromFBX": {"isTruePBR": false, "shadingModel": "Phong"}}, "name": "Material.008", "pbrMetallicRoughness": {"baseColorFactor": [1, 1, 1, 1], "baseColorTexture": {"index": 0, "texCoord": 0}, "metallicFactor": 0.400000005960464, "roughnessFactor": 0.272165536880493}}, {"alphaMode": "OPAQUE", "doubleSided": false, "extras": {"fromFBX": {"isTruePBR": false, "shadingModel": "Phong"}}, "name": "Material.007", "pbrMetallicRoughness": {"baseColorFactor": [1, 1, 1, 1], "baseColorTexture": {"index": 0, "texCoord": 0}, "metallicFactor": 0.400000005960464, "roughnessFactor": 0.272165536880493}}, {"alphaMode": "OPAQUE", "doubleSided": false, "extras": {"fromFBX": {"isTruePBR": false, "shadingModel": "Phong"}}, "name": "Material.006", "pbrMetallicRoughness": {"baseColorFactor": [1, 1, 1, 1], "baseColorTexture": {"index": 0, "texCoord": 0}, "metallicFactor": 0.400000005960464, "roughnessFactor": 0.272165536880493}}], "meshes": [{"name": "a spear", "primitives": [{"attributes": {"NORMAL": 2, "POSITION": 1, "TEXCOORD_0": 3}, "indices": 0, "material": 0, "mode": 4}]}, {"name": "havy sword", "primitives": [{"attributes": {"NORMAL": 6, "POSITION": 5, "TEXCOORD_0": 7}, "indices": 4, "material": 1, "mode": 4}]}, {"name": "smart sword", "primitives": [{"attributes": {"NORMAL": 10, "POSITION": 9, "TEXCOORD_0": 11}, "indices": 8, "material": 2, "mode": 4}]}, {"name": "long sword", "primitives": [{"attributes": {"NORMAL": 14, "POSITION": 13, "TEXCOORD_0": 15}, "indices": 12, "material": 3, "mode": 4}]}, {"name": "havy sword_2", "primitives": [{"attributes": {"NORMAL": 18, "POSITION": 17, "TEXCOORD_0": 19}, "indices": 16, "material": 4, "mode": 4}]}, {"name": "standart sword", "primitives": [{"attributes": {"NORMAL": 22, "POSITION": 21, "TEXCOORD_0": 23}, "indices": 20, "material": 5, "mode": 4}]}, {"name": "sword king", "primitives": [{"attributes": {"NORMAL": 26, "POSITION": 25, "TEXCOORD_0": 27}, "indices": 24, "material": 6, "mode": 4}]}, {"name": "sword king broken", "primitives": [{"attributes": {"NORMAL": 30, "POSITION": 29, "TEXCOORD_0": 31}, "indices": 28, "material": 7, "mode": 4}]}, {"name": "standart sword broken", "primitives": [{"attributes": {"NORMAL": 34, "POSITION": 33, "TEXCOORD_0": 35}, "indices": 32, "material": 8, "mode": 4}]}, {"name": "long sword broken", "primitives": [{"attributes": {"NORMAL": 38, "POSITION": 37, "TEXCOORD_0": 39}, "indices": 36, "material": 9, "mode": 4}]}, {"name": "havy sword_2.broken", "primitives": [{"attributes": {"NORMAL": 42, "POSITION": 41, "TEXCOORD_0": 43}, "indices": 40, "material": 10, "mode": 4}]}, {"name": "a spear 2", "primitives": [{"attributes": {"NORMAL": 46, "POSITION": 45, "TEXCOORD_0": 47}, "indices": 44, "material": 11, "mode": 4}]}, {"name": "halberd", "primitives": [{"attributes": {"NORMAL": 50, "POSITION": 49, "TEXCOORD_0": 51}, "indices": 48, "material": 12, "mode": 4}]}, {"name": "halberd broken", "primitives": [{"attributes": {"NORMAL": 54, "POSITION": 53, "TEXCOORD_0": 55}, "indices": 52, "material": 13, "mode": 4}]}, {"name": "halberd broken_2", "primitives": [{"attributes": {"NORMAL": 58, "POSITION": 57, "TEXCOORD_0": 59}, "indices": 56, "material": 14, "mode": 4}]}], "nodes": [{"mesh": 0, "name": "a spear", "rotation": [-0.40075820684433, -0.47107928991318, -0.60306203365326, 0.503779053688049], "scale": [0.908941864967346, 1.22860896587372, 1.22680580615997], "translation": [-2.822931856e-05, 0, -2.27e-12]}, {"mesh": 1, "name": "havy sword", "rotation": [-0.70710688829422, 0, 0, 0.707106709480286], "scale": [0.780455648899078, 0.780455648899078, 0.780455648899078], "translation": [-2.822931856e-05, 0, 5.29395592e-23]}, {"mesh": 2, "name": "smart sword", "rotation": [5.33850759154575e-08, 0.707106828689575, 0.70710676908493, -5.338508e-08], "scale": [0.88052898645401, 0.88052898645401, 0.88052898645401], "translation": [-2.822931856e-05, 0, 5.55111512312578e-17]}, {"mesh": 3, "name": "long sword", "rotation": [0.707106828689575, 8.42937097900176e-08, -2.247647e-08, 0.707106709480286], "scale": [0.850522041320801, 0.850522041320801, 0.850522041320801], "translation": [-2.822931856e-05, 0, 0]}, {"mesh": 4, "name": "havy sword_2", "rotation": [9.55319308104663e-08, 0.707106709480286, 0.707106828689575, 1.12382325667681e-08], "scale": [1.43822169303894, 1.43822169303894, 1.43822169303894], "translation": [-2.822931856e-05, 0, 0]}, {"mesh": 5, "name": "standart sword", "rotation": [0.0001574297202751, -0.70710676908493, 0.70710676908493, 0.00015742970572318], "scale": [1.62386310100555, 1.62386310100555, 1.62386322021484], "translation": [-2.822931856e-05, 0, 0]}, {"mesh": 6, "name": "sword king", "rotation": [5.33850794681712e-08, 0.707106828689575, -0.70710670948029, -5.338507e-08], "scale": [1.26905906200409, 1.26905906200409, 1.26905906200409], "translation": [-2.822931856e-05, 0, 0]}, {"mesh": 7, "name": "sword king broken", "rotation": [5.33850794681712e-08, 0.707106828689575, -0.70710670948029, -5.338507e-08], "scale": [1.26905906200409, 1.26905906200409, 1.26905906200409], "translation": [-2.822931856e-05, 6.93889390390723e-18, 0]}, {"mesh": 8, "name": "standart sword broken", "rotation": [0.0001574297202751, -0.70710676908493, 0.70710676908493, 0.00015742970572318], "scale": [1.62386310100555, 1.62386310100555, 1.62386322021484], "translation": [-2.822931856e-05, 0, 0]}, {"mesh": 9, "name": "long sword broken", "rotation": [0.707106828689575, 8.42937097900176e-08, -2.247647e-08, 0.707106709480286], "scale": [0.850522041320801, 0.850522041320801, 0.850522041320801], "translation": [-2.822931856e-05, 0, 0]}, {"mesh": 10, "name": "havy sword_2.broken", "rotation": [9.55319308104663e-08, 0.707106709480286, 0.707106828689575, 1.12382325667681e-08], "scale": [1.43822169303894, 1.43822169303894, 1.43822169303894], "translation": [-2.822931856e-05, 0, 4.99214749332083e-18]}, {"mesh": 11, "name": "a spear 2", "rotation": [-0.70710682868957, 0, 0, 0.707106709480286], "scale": [1.00387060642242, 1.00387060642242, 1.00387060642242], "translation": [-2.822931856e-05, 0, 0]}, {"mesh": 12, "name": "halberd", "rotation": [-0.70710682868957, 0, 0, 0.707106709480286], "scale": [1.49952149391174, 1.49952149391174, 1.49952149391174], "translation": [-2.822931856e-05, 0, 0]}, {"mesh": 13, "name": "halberd broken", "rotation": [-0.70710682868957, 0, 0, 0.707106709480286], "scale": [1.49952149391174, 1.49952149391174, 1.49952149391174], "translation": [-2.822931856e-05, 0, 0]}, {"mesh": 14, "name": "halberd broken_2", "rotation": [-0.70710682868957, 0, 0, 0.707106709480286], "scale": [1.49952149391174, 1.49952149391174, 1.49952149391174], "translation": [-2.822931856e-05, 1.77635683940025e-15, 0]}], "samplers": [{}], "scene": 0, "scenes": [{"name": "Root Scene", "nodes": [0, 1, 2, 3, 4, 5, 6, 7, 8, 9, 10, 11, 12, 13, 14]}], "textures": [{"name": "base_color_texture", "sampler": 0, "source": 0}]}