{"accessors": [{"bufferView": 0, "byteOffset": 0, "componentType": 5123, "count": 8712, "type": "SCALAR"}, {"bufferView": 1, "byteOffset": 0, "componentType": 5126, "count": 5710, "max": [0.0166997238993645, 0.021480755880475, 0.0305429734289646], "min": [-0.01665185205638, -0.02341061457992, -0.00156540807802], "type": "VEC3"}, {"bufferView": 2, "byteOffset": 0, "componentType": 5126, "count": 5710, "type": "VEC3"}, {"bufferView": 3, "byteOffset": 0, "componentType": 5126, "count": 5710, "type": "VEC2"}], "asset": {"generator": "FBX2glTF v0.13.1", "version": "2.0"}, "bufferViews": [{"buffer": 0, "byteLength": 17424, "byteOffset": 0, "target": 34963}, {"buffer": 0, "byteLength": 68520, "byteOffset": 17424, "target": 34962}, {"buffer": 0, "byteLength": 68520, "byteOffset": 85944, "target": 34962}, {"buffer": 0, "byteLength": 45680, "byteOffset": 154464, "target": 34962}], "buffers": [{"byteLength": 200144, "uri": "Tent_02.bin"}], "images": [{"name": "Polygon_Camping_Texture", "uri": "MainTexture_01.png"}], "materials": [{"alphaMode": "OPAQUE", "doubleSided": false, "extras": {"fromFBX": {"isTruePBR": false, "shadingModel": "Phong"}}, "name": "Material.029", "pbrMetallicRoughness": {"baseColorFactor": [1, 1, 1, 1], "baseColorTexture": {"index": 0, "texCoord": 0}, "metallicFactor": 0.400000005960464, "roughnessFactor": 0.272165536880493}}], "meshes": [{"name": "T-tant", "primitives": [{"attributes": {"NORMAL": 2, "POSITION": 1, "TEXCOORD_0": 3}, "indices": 0, "material": 0, "mode": 4}]}], "nodes": [{"mesh": 0, "name": "T-tant", "rotation": [-0.70710682868957, 0, 0, 0.707106709480286], "scale": [47.8916397094727, 47.8916397094727, 47.8916397094727], "translation": [0, 3.72529029846191e-09, -1e-14]}], "samplers": [{}], "scene": 0, "scenes": [{"name": "Root Scene", "nodes": [0]}], "textures": [{"name": "base_color_texture", "sampler": 0, "source": 0}]}