{"accessors": [{"bufferView": 0, "byteOffset": 0, "componentType": 5123, "count": 4254, "type": "SCALAR"}, {"bufferView": 1, "byteOffset": 0, "componentType": 5126, "count": 2782, "max": [0.282367438077927, 0.253489285707474, 0.403799772262573], "min": [-0.37522423267365, -0.27915573120117, -0.02660239860415], "type": "VEC3"}, {"bufferView": 2, "byteOffset": 0, "componentType": 5126, "count": 2782, "type": "VEC3"}, {"bufferView": 3, "byteOffset": 0, "componentType": 5126, "count": 2782, "type": "VEC2"}], "asset": {"generator": "FBX2glTF v0.13.1", "version": "2.0"}, "bufferViews": [{"buffer": 0, "byteLength": 8508, "byteOffset": 0, "target": 34963}, {"buffer": 0, "byteLength": 33384, "byteOffset": 8508, "target": 34962}, {"buffer": 0, "byteLength": 33384, "byteOffset": 41892, "target": 34962}, {"buffer": 0, "byteLength": 22256, "byteOffset": 75276, "target": 34962}], "buffers": [{"byteLength": 97532, "uri": "Tent_01.bin"}], "images": [{"name": "Polygon_Camping_Texture", "uri": "MainTexture_01.png"}], "materials": [{"alphaMode": "OPAQUE", "doubleSided": false, "extras": {"fromFBX": {"isTruePBR": false, "shadingModel": "Phong"}}, "name": "Material.023", "pbrMetallicRoughness": {"baseColorFactor": [1, 1, 1, 1], "baseColorTexture": {"index": 0, "texCoord": 0}, "metallicFactor": 0.400000005960464, "roughnessFactor": 0.272165536880493}}], "meshes": [{"name": "tent 45", "primitives": [{"attributes": {"NORMAL": 2, "POSITION": 1, "TEXCOORD_0": 3}, "indices": 0, "material": 0, "mode": 4}]}], "nodes": [{"mesh": 0, "name": "tent 45", "rotation": [-0.70710682868957, 0, 0, 0.707106709480286], "scale": [2.42697858810425, 2.42697834968567, 2.42697715759277], "translation": [-0.02388018369675, -2.980232e-08, 0.0372817441821098]}], "samplers": [{}], "scene": 0, "scenes": [{"name": "Root Scene", "nodes": [0]}], "textures": [{"name": "base_color_texture", "sampler": 0, "source": 0}]}