{"accessors": [{"bufferView": 0, "byteOffset": 0, "componentType": 5123, "count": 9228, "type": "SCALAR"}, {"bufferView": 1, "byteOffset": 0, "componentType": 5126, "count": 6010, "max": [0.258971691131592, 0.258470833301544, 0.213379353284836], "min": [-0.26362547278404, -0.15432271361351, -0.00321102375165], "type": "VEC3"}, {"bufferView": 2, "byteOffset": 0, "componentType": 5126, "count": 6010, "type": "VEC3"}, {"bufferView": 3, "byteOffset": 0, "componentType": 5126, "count": 6010, "type": "VEC2"}], "asset": {"generator": "FBX2glTF v0.13.1", "version": "2.0"}, "bufferViews": [{"buffer": 0, "byteLength": 18456, "byteOffset": 0, "target": 34963}, {"buffer": 0, "byteLength": 72120, "byteOffset": 18456, "target": 34962}, {"buffer": 0, "byteLength": 72120, "byteOffset": 90576, "target": 34962}, {"buffer": 0, "byteLength": 48080, "byteOffset": 162696, "target": 34962}], "buffers": [{"byteLength": 210776, "uri": "Tent_04.bin"}], "images": [{"name": "Polygon_Camping_Texture", "uri": "MainTexture_01.png"}], "materials": [{"alphaMode": "OPAQUE", "doubleSided": false, "extras": {"fromFBX": {"isTruePBR": false, "shadingModel": "Phong"}}, "name": "Material", "pbrMetallicRoughness": {"baseColorFactor": [1, 1, 1, 1], "baseColorTexture": {"index": 0, "texCoord": 0}, "metallicFactor": 0.400000005960464, "roughnessFactor": 0.272165536880493}}], "meshes": [{"name": "tent long.001", "primitives": [{"attributes": {"NORMAL": 2, "POSITION": 1, "TEXCOORD_0": 3}, "indices": 0, "material": 0, "mode": 4}]}], "nodes": [{"mesh": 0, "name": "tent long.001", "rotation": [-0.70710682868957, 0, 0, 0.707106709480286], "scale": [5.80606698989868, 5.80606698989868, 5.80606698989868], "translation": [2.73995101451874e-05, -7.253885269e-05, 2.89082527160645e-06]}], "samplers": [{}], "scene": 0, "scenes": [{"name": "Root Scene", "nodes": [0]}], "textures": [{"name": "base_color_texture", "sampler": 0, "source": 0}]}