{"accessors": [{"bufferView": 0, "byteOffset": 0, "componentType": 5123, "count": 9408, "type": "SCALAR"}, {"bufferView": 1, "byteOffset": 0, "componentType": 5126, "count": 5904, "max": [0.177397385239601, 0.133771896362305, 0.02292874827981], "min": [-0.1741289049387, -0.16390264034271, -0.34236833453178], "type": "VEC3"}, {"bufferView": 2, "byteOffset": 0, "componentType": 5126, "count": 5904, "type": "VEC3"}, {"bufferView": 3, "byteOffset": 0, "componentType": 5126, "count": 5904, "type": "VEC2"}], "asset": {"generator": "FBX2glTF v0.13.1", "version": "2.0"}, "bufferViews": [{"buffer": 0, "byteLength": 18816, "byteOffset": 0, "target": 34963}, {"buffer": 0, "byteLength": 70848, "byteOffset": 18816, "target": 34962}, {"buffer": 0, "byteLength": 70848, "byteOffset": 89664, "target": 34962}, {"buffer": 0, "byteLength": 47232, "byteOffset": 160512, "target": 34962}], "buffers": [{"byteLength": 207744, "uri": "Torus_01.bin"}], "images": [{"name": "Polygon_Camping_Texture", "uri": "MainTexture_01.png"}], "materials": [{"alphaMode": "OPAQUE", "doubleSided": false, "extras": {"fromFBX": {"isTruePBR": false, "shadingModel": "Phong"}}, "name": "Material.001", "pbrMetallicRoughness": {"baseColorFactor": [1, 1, 1, 1], "baseColorTexture": {"index": 0, "texCoord": 0}, "metallicFactor": 0.400000005960464, "roughnessFactor": 0.272165536880493}}], "meshes": [{"name": "Torus.001", "primitives": [{"attributes": {"NORMAL": 2, "POSITION": 1, "TEXCOORD_0": 3}, "indices": 0, "material": 0, "mode": 4}]}], "nodes": [{"mesh": 0, "name": "Torus.001", "rotation": [-0.70710682868957, 0, 0, 0.707106709480286], "scale": [-1.84074378013611, -1.25176441669464, -1.84074378013611], "translation": [2.74479389190674e-05, -7.249414921e-05, 2.86847352981567e-06]}], "samplers": [{}], "scene": 0, "scenes": [{"name": "Root Scene", "nodes": [0]}], "textures": [{"name": "base_color_texture", "sampler": 0, "source": 0}]}